<?xml version="1.0" standalone="no"?>
<!DOCTYPE svg PUBLIC "-//W3C//DTD SVG 1.1//EN" "http://www.w3.org/Graphics/SVG/1.1/DTD/svg11.dtd" >
<svg xmlns="http://www.w3.org/2000/svg">
<defs>
  <font id="reactsmile-iconography" horiz-adv-x="24">
    <font-face font-family="reactsmile-iconography"
      units-per-em="24" ascent="24"
      descent="0" />
    <missing-glyph horiz-adv-x="0" />
    <glyph glyph-name="alarm-o"
      unicode="&#xF101;"
      horiz-adv-x="24" d="M12 18.25C7.99594 18.25 4.75 15.00406 4.75 11C4.75 6.9959 7.99594 3.75 12 3.75C16.0041 3.75 19.25 6.9959 19.25 11C19.25 15.00406 16.0041 18.25 12 18.25zM3.25 11C3.25 15.83249 7.16751 19.75 12 19.75C16.8325 19.75 20.75 15.83249 20.75 11C20.75 6.1675 16.8325 2.25 12 2.25C7.16751 2.25 3.25 6.1675 3.25 11zM12 16.75C12.4142 16.75 12.75 16.41421 12.75 16V11.4157L15.3975 9.761C15.7488 9.5415 15.8555 9.0788 15.636 8.7275C15.4165 8.3762 14.9538 8.2695 14.6025 8.489L11.6025 10.364C11.3832 10.5011 11.25 10.7414 11.25 11V16C11.25 16.41421 11.5858 16.75 12 16.75zM6.53033 20.53033C6.82322 20.23744 6.82322 19.76256 6.53033 19.46967L4.03033 16.96967C3.73744 16.67678 3.26256 16.67678 2.96967 16.96967C2.67678 17.26256 2.67678 17.73744 2.96967 18.03033L5.46967 20.53033C5.76256 20.82322 6.23744 20.82322 6.53033 20.53033zM17.4697 20.53033C17.1768 20.23744 17.1768 19.76256 17.4697 19.46967L19.9697 16.96967C20.2626 16.67678 20.7374 16.67678 21.0303 16.96967C21.3232 17.26256 21.3232 17.73744 21.0303 18.03033L18.5303 20.53033C18.2374 20.82322 17.7626 20.82322 17.4697 20.53033z" />
    <glyph glyph-name="alarm-o-1"
      unicode="&#x61;&#x6C;&#x61;&#x72;&#x6D;&#x2D;&#x6F;"
      horiz-adv-x="24" d="M12 18.25C7.99594 18.25 4.75 15.00406 4.75 11C4.75 6.9959 7.99594 3.75 12 3.75C16.0041 3.75 19.25 6.9959 19.25 11C19.25 15.00406 16.0041 18.25 12 18.25zM3.25 11C3.25 15.83249 7.16751 19.75 12 19.75C16.8325 19.75 20.75 15.83249 20.75 11C20.75 6.1675 16.8325 2.25 12 2.25C7.16751 2.25 3.25 6.1675 3.25 11zM12 16.75C12.4142 16.75 12.75 16.41421 12.75 16V11.4157L15.3975 9.761C15.7488 9.5415 15.8555 9.0788 15.636 8.7275C15.4165 8.3762 14.9538 8.2695 14.6025 8.489L11.6025 10.364C11.3832 10.5011 11.25 10.7414 11.25 11V16C11.25 16.41421 11.5858 16.75 12 16.75zM6.53033 20.53033C6.82322 20.23744 6.82322 19.76256 6.53033 19.46967L4.03033 16.96967C3.73744 16.67678 3.26256 16.67678 2.96967 16.96967C2.67678 17.26256 2.67678 17.73744 2.96967 18.03033L5.46967 20.53033C5.76256 20.82322 6.23744 20.82322 6.53033 20.53033zM17.4697 20.53033C17.1768 20.23744 17.1768 19.76256 17.4697 19.46967L19.9697 16.96967C20.2626 16.67678 20.7374 16.67678 21.0303 16.96967C21.3232 17.26256 21.3232 17.73744 21.0303 18.03033L18.5303 20.53033C18.2374 20.82322 17.7626 20.82322 17.4697 20.53033z" />
    <glyph glyph-name="alarm"
      unicode="&#xF102;"
      horiz-adv-x="24" d="M6.53033 20.53033C6.82322 20.23744 6.82322 19.76256 6.53033 19.46967L4.03033 16.96967C3.73744 16.67678 3.26256 16.67678 2.96967 16.96967C2.67678 17.26256 2.67678 17.73744 2.96967 18.03033L5.46967 20.53033C5.76256 20.82322 6.23744 20.82322 6.53033 20.53033zM12 19.5C7.30558 19.5 3.5 15.69442 3.5 11C3.5 6.3056 7.30558 2.5 12 2.5C16.6944 2.5 20.5 6.3056 20.5 11C20.5 15.69442 16.6944 19.5 12 19.5zM12.75 16C12.75 16.41421 12.4142 16.75 12 16.75C11.5858 16.75 11.25 16.41421 11.25 16V11C11.25 10.7414 11.3832 10.5011 11.6025 10.364L14.6025 8.489C14.9538 8.2695 15.4165 8.3762 15.636 8.7275C15.8555 9.0788 15.7488 9.5415 15.3975 9.761L12.75 11.4157V16zM17.4697 19.46967C17.1768 19.76256 17.1768 20.23744 17.4697 20.53033C17.7626 20.82322 18.2374 20.82322 18.5303 20.53033L21.0303 18.03033C21.3232 17.73744 21.3232 17.26256 21.0303 16.96967C20.7374 16.67678 20.2626 16.67678 19.9697 16.96967L17.4697 19.46967z" />
    <glyph glyph-name="alarm-1"
      unicode="&#x61;&#x6C;&#x61;&#x72;&#x6D;"
      horiz-adv-x="24" d="M6.53033 20.53033C6.82322 20.23744 6.82322 19.76256 6.53033 19.46967L4.03033 16.96967C3.73744 16.67678 3.26256 16.67678 2.96967 16.96967C2.67678 17.26256 2.67678 17.73744 2.96967 18.03033L5.46967 20.53033C5.76256 20.82322 6.23744 20.82322 6.53033 20.53033zM12 19.5C7.30558 19.5 3.5 15.69442 3.5 11C3.5 6.3056 7.30558 2.5 12 2.5C16.6944 2.5 20.5 6.3056 20.5 11C20.5 15.69442 16.6944 19.5 12 19.5zM12.75 16C12.75 16.41421 12.4142 16.75 12 16.75C11.5858 16.75 11.25 16.41421 11.25 16V11C11.25 10.7414 11.3832 10.5011 11.6025 10.364L14.6025 8.489C14.9538 8.2695 15.4165 8.3762 15.636 8.7275C15.8555 9.0788 15.7488 9.5415 15.3975 9.761L12.75 11.4157V16zM17.4697 19.46967C17.1768 19.76256 17.1768 20.23744 17.4697 20.53033C17.7626 20.82322 18.2374 20.82322 18.5303 20.53033L21.0303 18.03033C21.3232 17.73744 21.3232 17.26256 21.0303 16.96967C20.7374 16.67678 20.2626 16.67678 19.9697 16.96967L17.4697 19.46967z" />
    <glyph glyph-name="bag-o"
      unicode="&#xF103;"
      horiz-adv-x="24" d="M7.24997 17.36896V18.53874C7.24997 19.40499 7.88371 20.14088 8.74037 20.26938L9.96029 20.45237C11.3125 20.6552 12.6874 20.6552 14.0397 20.45237L15.2596 20.26938C16.1162 20.14088 16.75 19.40499 16.75 18.53874V17.36896L18.464 17.23061C19.7764 17.12467 20.8469 16.13653 21.0574 14.83681C21.5226 11.9643 21.5226 9.0356 21.0574 6.1631C20.8469 4.8633 19.7764 3.8752 18.464 3.7693L16.5921 3.6182C13.5356 3.3715 10.4643 3.3715 7.40784 3.6182L5.53592 3.7693C4.22354 3.8752 3.153 4.8633 2.94252 6.1631C2.47733 9.0356 2.47733 11.9643 2.94252 14.83681C3.153 16.13653 4.22354 17.12467 5.53592 17.23061L7.24997 17.36896zM10.1828 18.96896C11.3875 19.14967 12.6124 19.14967 13.8171 18.96896L15.0371 18.78598C15.1594 18.76762 15.25 18.66249 15.25 18.53874V17.47414C13.0851 17.59761 10.9149 17.59761 8.74997 17.47414V18.53874C8.74997 18.66249 8.8405 18.76762 8.96288 18.78598L10.1828 18.96896zM7.52853 15.88657C10.5046 16.1268 13.4953 16.1268 16.4714 15.88657L18.3433 15.73547C18.9675 15.68509 19.4766 15.21515 19.5767 14.59702C19.639 14.21209 19.6925 13.8261 19.7372 13.4393C14.8596 11.0375 9.14035 11.0375 4.26274 13.4393C4.3074 13.8261 4.36089 14.21209 4.42323 14.59702C4.52333 15.21515 5.03246 15.68509 5.65661 15.73547L7.52853 15.88657zM4.12886 11.8433C9.12826 9.5696 14.8717 9.5696 19.8711 11.8433C19.9664 10.0271 19.8683 8.2033 19.5767 6.4029C19.4766 5.7847 18.9675 5.3148 18.3433 5.2644L16.4714 5.1133C13.4953 4.8731 10.5046 4.8731 7.52853 5.1133L5.65661 5.2644C5.03246 5.3148 4.52333 5.7847 4.42323 6.4029C4.13166 8.2033 4.03353 10.0271 4.12886 11.8433z" />
    <glyph glyph-name="bag-o-1"
      unicode="&#x62;&#x61;&#x67;&#x2D;&#x6F;"
      horiz-adv-x="24" d="M7.24997 17.36896V18.53874C7.24997 19.40499 7.88371 20.14088 8.74037 20.26938L9.96029 20.45237C11.3125 20.6552 12.6874 20.6552 14.0397 20.45237L15.2596 20.26938C16.1162 20.14088 16.75 19.40499 16.75 18.53874V17.36896L18.464 17.23061C19.7764 17.12467 20.8469 16.13653 21.0574 14.83681C21.5226 11.9643 21.5226 9.0356 21.0574 6.1631C20.8469 4.8633 19.7764 3.8752 18.464 3.7693L16.5921 3.6182C13.5356 3.3715 10.4643 3.3715 7.40784 3.6182L5.53592 3.7693C4.22354 3.8752 3.153 4.8633 2.94252 6.1631C2.47733 9.0356 2.47733 11.9643 2.94252 14.83681C3.153 16.13653 4.22354 17.12467 5.53592 17.23061L7.24997 17.36896zM10.1828 18.96896C11.3875 19.14967 12.6124 19.14967 13.8171 18.96896L15.0371 18.78598C15.1594 18.76762 15.25 18.66249 15.25 18.53874V17.47414C13.0851 17.59761 10.9149 17.59761 8.74997 17.47414V18.53874C8.74997 18.66249 8.8405 18.76762 8.96288 18.78598L10.1828 18.96896zM7.52853 15.88657C10.5046 16.1268 13.4953 16.1268 16.4714 15.88657L18.3433 15.73547C18.9675 15.68509 19.4766 15.21515 19.5767 14.59702C19.639 14.21209 19.6925 13.8261 19.7372 13.4393C14.8596 11.0375 9.14035 11.0375 4.26274 13.4393C4.3074 13.8261 4.36089 14.21209 4.42323 14.59702C4.52333 15.21515 5.03246 15.68509 5.65661 15.73547L7.52853 15.88657zM4.12886 11.8433C9.12826 9.5696 14.8717 9.5696 19.8711 11.8433C19.9664 10.0271 19.8683 8.2033 19.5767 6.4029C19.4766 5.7847 18.9675 5.3148 18.3433 5.2644L16.4714 5.1133C13.4953 4.8731 10.5046 4.8731 7.52853 5.1133L5.65661 5.2644C5.03246 5.3148 4.52333 5.7847 4.42323 6.4029C4.13166 8.2033 4.03353 10.0271 4.12886 11.8433z" />
    <glyph glyph-name="bag"
      unicode="&#xF104;"
      horiz-adv-x="24" d="M7.24997 18.53874V17.11815L5.55604 16.98142C4.35836 16.88474 3.38139 15.98297 3.1893 14.79684C3.14756 14.53906 3.10959 14.28083 3.07541 14.02222C3.05845 13.8939 3.12688 13.7697 3.24388 13.7143L3.32093 13.6778C8.74964 11.1073 15.2503 11.1073 20.679 13.6778L20.756 13.7143C20.873 13.7697 20.9415 13.8939 20.9245 14.02221C20.8903 14.28082 20.8524 14.53906 20.8106 14.79684C20.6185 15.98297 19.6416 16.88474 18.4439 16.98142L16.75 17.11815V18.53874C16.75 19.40499 16.1162 20.14088 15.2596 20.26938L14.0397 20.45237C12.6874 20.6552 11.3125 20.6552 9.96029 20.45237L8.74037 20.26938C7.88371 20.14088 7.24997 19.40499 7.24997 18.53874zM13.8171 18.96896C12.6124 19.14967 11.3875 19.14967 10.1828 18.96896L8.96288 18.78598C8.8405 18.76762 8.74997 18.66249 8.74997 18.53874V17.22373C10.9149 17.34775 13.0851 17.34775 15.25 17.22373V18.53874C15.25 18.66249 15.1594 18.76762 15.0371 18.78598L13.8171 18.96896zM21.1183 11.9291C21.1108 12.0692 20.9641 12.1567 20.8358 12.0999C15.2649 9.6333 8.73501 9.6333 3.16409 12.0999C3.03579 12.1567 2.88911 12.0692 2.88165 11.9291C2.77987 10.0176 2.88243 8.098 3.1893 6.203C3.38139 5.0169 4.35836 4.1151 5.55604 4.0185L7.42796 3.8674C10.471 3.6217 13.5289 3.6217 16.572 3.8674L18.4439 4.0185C19.6416 4.1151 20.6185 5.0169 20.8106 6.203C21.1175 8.098 21.2201 10.0176 21.1183 11.9291z" />
    <glyph glyph-name="bag-1"
      unicode="&#x62;&#x61;&#x67;"
      horiz-adv-x="24" d="M7.24997 18.53874V17.11815L5.55604 16.98142C4.35836 16.88474 3.38139 15.98297 3.1893 14.79684C3.14756 14.53906 3.10959 14.28083 3.07541 14.02222C3.05845 13.8939 3.12688 13.7697 3.24388 13.7143L3.32093 13.6778C8.74964 11.1073 15.2503 11.1073 20.679 13.6778L20.756 13.7143C20.873 13.7697 20.9415 13.8939 20.9245 14.02221C20.8903 14.28082 20.8524 14.53906 20.8106 14.79684C20.6185 15.98297 19.6416 16.88474 18.4439 16.98142L16.75 17.11815V18.53874C16.75 19.40499 16.1162 20.14088 15.2596 20.26938L14.0397 20.45237C12.6874 20.6552 11.3125 20.6552 9.96029 20.45237L8.74037 20.26938C7.88371 20.14088 7.24997 19.40499 7.24997 18.53874zM13.8171 18.96896C12.6124 19.14967 11.3875 19.14967 10.1828 18.96896L8.96288 18.78598C8.8405 18.76762 8.74997 18.66249 8.74997 18.53874V17.22373C10.9149 17.34775 13.0851 17.34775 15.25 17.22373V18.53874C15.25 18.66249 15.1594 18.76762 15.0371 18.78598L13.8171 18.96896zM21.1183 11.9291C21.1108 12.0692 20.9641 12.1567 20.8358 12.0999C15.2649 9.6333 8.73501 9.6333 3.16409 12.0999C3.03579 12.1567 2.88911 12.0692 2.88165 11.9291C2.77987 10.0176 2.88243 8.098 3.1893 6.203C3.38139 5.0169 4.35836 4.1151 5.55604 4.0185L7.42796 3.8674C10.471 3.6217 13.5289 3.6217 16.572 3.8674L18.4439 4.0185C19.6416 4.1151 20.6185 5.0169 20.8106 6.203C21.1175 8.098 21.2201 10.0176 21.1183 11.9291z" />
    <glyph glyph-name="bank-o"
      unicode="&#xF105;"
      horiz-adv-x="24" d="M11.4151 21.60489C11.7962 21.72203 12.2038 21.72203 12.5849 21.60489L15.5706 20.68723C17.1283 20.20848 18.6075 19.50462 19.9616 18.59797C21.0147 17.89278 20.5155 16.25003 19.2481 16.25003H4.75191C3.48446 16.25003 2.98526 17.89278 4.03841 18.59796C5.39244 19.50462 6.87174 20.20848 8.42938 20.68723L11.4151 21.60489zM12.1442 20.17109C12.0502 20.19997 11.9498 20.19997 11.8558 20.17109L8.87006 19.25342C7.68925 18.8905 6.55791 18.38546 5.50069 17.75003H18.4993C17.4421 18.38546 16.3107 18.8905 15.1299 19.25342L12.1442 20.17109zM4.25 3C4.25 3.4142 4.58579 3.75 5 3.75H19C19.4142 3.75 19.75 3.4142 19.75 3C19.75 2.5858 19.4142 2.25 19 2.25H5C4.58579 2.25 4.25 2.5858 4.25 3zM6.25 7C6.25 6.5858 6.58579 6.25 7 6.25C7.41421 6.25 7.75 6.5858 7.75 7L7.75 13C7.75 13.4142 7.41421 13.75 7 13.75C6.58579 13.75 6.25 13.4142 6.25 13L6.25 7zM12 6.25C11.5858 6.25 11.25 6.5858 11.25 7L11.25 13C11.25 13.4142 11.5858 13.75 12 13.75C12.4142 13.75 12.75 13.4142 12.75 13V7C12.75 6.5858 12.4142 6.25 12 6.25zM16.25 7C16.25 6.5858 16.5858 6.25 17 6.25C17.4142 6.25 17.75 6.5858 17.75 7V13C17.75 13.4142 17.4142 13.75 17 13.75C16.5858 13.75 16.25 13.4142 16.25 13V7z" />
    <glyph glyph-name="bank-o-1"
      unicode="&#x62;&#x61;&#x6E;&#x6B;&#x2D;&#x6F;"
      horiz-adv-x="24" d="M11.4151 21.60489C11.7962 21.72203 12.2038 21.72203 12.5849 21.60489L15.5706 20.68723C17.1283 20.20848 18.6075 19.50462 19.9616 18.59797C21.0147 17.89278 20.5155 16.25003 19.2481 16.25003H4.75191C3.48446 16.25003 2.98526 17.89278 4.03841 18.59796C5.39244 19.50462 6.87174 20.20848 8.42938 20.68723L11.4151 21.60489zM12.1442 20.17109C12.0502 20.19997 11.9498 20.19997 11.8558 20.17109L8.87006 19.25342C7.68925 18.8905 6.55791 18.38546 5.50069 17.75003H18.4993C17.4421 18.38546 16.3107 18.8905 15.1299 19.25342L12.1442 20.17109zM4.25 3C4.25 3.4142 4.58579 3.75 5 3.75H19C19.4142 3.75 19.75 3.4142 19.75 3C19.75 2.5858 19.4142 2.25 19 2.25H5C4.58579 2.25 4.25 2.5858 4.25 3zM6.25 7C6.25 6.5858 6.58579 6.25 7 6.25C7.41421 6.25 7.75 6.5858 7.75 7L7.75 13C7.75 13.4142 7.41421 13.75 7 13.75C6.58579 13.75 6.25 13.4142 6.25 13L6.25 7zM12 6.25C11.5858 6.25 11.25 6.5858 11.25 7L11.25 13C11.25 13.4142 11.5858 13.75 12 13.75C12.4142 13.75 12.75 13.4142 12.75 13V7C12.75 6.5858 12.4142 6.25 12 6.25zM16.25 7C16.25 6.5858 16.5858 6.25 17 6.25C17.4142 6.25 17.75 6.5858 17.75 7V13C17.75 13.4142 17.4142 13.75 17 13.75C16.5858 13.75 16.25 13.4142 16.25 13V7z" />
    <glyph glyph-name="bank"
      unicode="&#xF106;"
      horiz-adv-x="24" d="M12.5115 21.36593C12.1782 21.46836 11.8219 21.46836 11.4886 21.36593L8.50285 20.44826C6.9685 19.97667 5.51132 19.28334 4.17753 18.39023C3.32969 17.82252 3.73157 16.50003 4.75193 16.50003H19.2481C20.2685 16.50003 20.6703 17.82252 19.8225 18.39023C18.4887 19.28334 17.0315 19.97667 15.4972 20.44826L12.5115 21.36593zM4.25 3C4.25 3.4142 4.58579 3.75 5 3.75H19C19.4142 3.75 19.75 3.4142 19.75 3C19.75 2.5858 19.4142 2.25 19 2.25H5C4.58579 2.25 4.25 2.5858 4.25 3zM6.25 7C6.25 6.5858 6.58579 6.25 7 6.25C7.41421 6.25 7.75 6.5858 7.75 7L7.75 13C7.75 13.4142 7.41421 13.75 7 13.75C6.58579 13.75 6.25 13.4142 6.25 13L6.25 7zM12 6.25C11.5858 6.25 11.25 6.5858 11.25 7L11.25 13C11.25 13.4142 11.5858 13.75 12 13.75C12.4142 13.75 12.75 13.4142 12.75 13V7C12.75 6.5858 12.4142 6.25 12 6.25zM16.25 7C16.25 6.5858 16.5858 6.25 17 6.25C17.4142 6.25 17.75 6.5858 17.75 7V13C17.75 13.4142 17.4142 13.75 17 13.75C16.5858 13.75 16.25 13.4142 16.25 13V7z" />
    <glyph glyph-name="bank-1"
      unicode="&#x62;&#x61;&#x6E;&#x6B;"
      horiz-adv-x="24" d="M12.5115 21.36593C12.1782 21.46836 11.8219 21.46836 11.4886 21.36593L8.50285 20.44826C6.9685 19.97667 5.51132 19.28334 4.17753 18.39023C3.32969 17.82252 3.73157 16.50003 4.75193 16.50003H19.2481C20.2685 16.50003 20.6703 17.82252 19.8225 18.39023C18.4887 19.28334 17.0315 19.97667 15.4972 20.44826L12.5115 21.36593zM4.25 3C4.25 3.4142 4.58579 3.75 5 3.75H19C19.4142 3.75 19.75 3.4142 19.75 3C19.75 2.5858 19.4142 2.25 19 2.25H5C4.58579 2.25 4.25 2.5858 4.25 3zM6.25 7C6.25 6.5858 6.58579 6.25 7 6.25C7.41421 6.25 7.75 6.5858 7.75 7L7.75 13C7.75 13.4142 7.41421 13.75 7 13.75C6.58579 13.75 6.25 13.4142 6.25 13L6.25 7zM12 6.25C11.5858 6.25 11.25 6.5858 11.25 7L11.25 13C11.25 13.4142 11.5858 13.75 12 13.75C12.4142 13.75 12.75 13.4142 12.75 13V7C12.75 6.5858 12.4142 6.25 12 6.25zM16.25 7C16.25 6.5858 16.5858 6.25 17 6.25C17.4142 6.25 17.75 6.5858 17.75 7V13C17.75 13.4142 17.4142 13.75 17 13.75C16.5858 13.75 16.25 13.4142 16.25 13V7z" />
    <glyph glyph-name="box-o"
      unicode="&#xF107;"
      horiz-adv-x="24" d="M16.75 13C16.75 12.5858 16.4142 12.25 16 12.25H8C7.58579 12.25 7.25 12.5858 7.25 13C7.25 13.4142 7.58579 13.75 8 13.75H16C16.4142 13.75 16.75 13.4142 16.75 13zM4.38558 15.8533L5.57431 19.1009C5.87389 19.91934 6.60048 20.50581 7.46371 20.62594C10.4734 21.04477 13.5266 21.04477 16.5364 20.62594C17.3996 20.50581 18.1262 19.91933 18.4258 19.10088L19.6146 15.853C19.8369 15.50611 19.99 15.10958 20.0543 14.6821L20.1563 14.00426C20.5561 11.3456 20.5187 8.6395 20.0456 5.993C19.8359 4.8197 18.8723 3.9284 17.6862 3.8107L16.4558 3.6886C13.4925 3.3945 10.5074 3.3945 7.54417 3.6886L6.3137 3.8107C5.12763 3.9284 4.16407 4.8197 3.95434 5.993C3.48127 8.6395 3.44389 11.3456 3.84369 14.00426L3.94562 14.6821C4.00992 15.10971 4.16314 15.50635 4.38558 15.8533zM7.67046 19.14026C10.543 19.54 13.4571 19.54 16.3296 19.14026C16.6437 19.09654 16.9081 18.88313 17.0172 18.5853L17.5234 17.20231C17.478 17.20892 17.4323 17.21451 17.3864 17.21908L16.4082 17.31617C13.4766 17.60714 10.5234 17.60714 7.59179 17.31616L6.6136 17.21908C6.56765 17.21452 6.52201 17.20893 6.4767 17.20233L6.98291 18.5853C7.09193 18.88313 7.35633 19.09654 7.67046 19.14026zM5.68566 15.09902L5.70432 15.09219L5.72747 15.15544C5.97321 15.4713 6.34233 15.68478 6.76175 15.72641L7.73994 15.8235C10.573 16.10469 13.4269 16.10469 16.26 15.8235L17.2382 15.72641C17.6577 15.68477 18.0269 15.47121 18.2726 15.15524L18.2957 15.0922L18.3143 15.099C18.4454 14.91311 18.5354 14.69556 18.571 14.45905L18.6729 13.7812C19.0484 11.2842 19.0133 8.7426 18.569 6.2569C18.4774 5.7442 18.0563 5.3548 17.5381 5.3034L16.3076 5.1812C13.4429 4.8969 10.5571 4.8969 7.69232 5.1812L6.46186 5.3034C5.9436 5.3548 5.52258 5.7442 5.43094 6.2569C4.98662 8.7426 4.95152 11.2842 5.32701 13.7812L5.42894 14.45905C5.46451 14.69557 5.55453 14.91312 5.68566 15.09902z" />
    <glyph glyph-name="box-o-1"
      unicode="&#x62;&#x6F;&#x78;&#x2D;&#x6F;"
      horiz-adv-x="24" d="M16.75 13C16.75 12.5858 16.4142 12.25 16 12.25H8C7.58579 12.25 7.25 12.5858 7.25 13C7.25 13.4142 7.58579 13.75 8 13.75H16C16.4142 13.75 16.75 13.4142 16.75 13zM4.38558 15.8533L5.57431 19.1009C5.87389 19.91934 6.60048 20.50581 7.46371 20.62594C10.4734 21.04477 13.5266 21.04477 16.5364 20.62594C17.3996 20.50581 18.1262 19.91933 18.4258 19.10088L19.6146 15.853C19.8369 15.50611 19.99 15.10958 20.0543 14.6821L20.1563 14.00426C20.5561 11.3456 20.5187 8.6395 20.0456 5.993C19.8359 4.8197 18.8723 3.9284 17.6862 3.8107L16.4558 3.6886C13.4925 3.3945 10.5074 3.3945 7.54417 3.6886L6.3137 3.8107C5.12763 3.9284 4.16407 4.8197 3.95434 5.993C3.48127 8.6395 3.44389 11.3456 3.84369 14.00426L3.94562 14.6821C4.00992 15.10971 4.16314 15.50635 4.38558 15.8533zM7.67046 19.14026C10.543 19.54 13.4571 19.54 16.3296 19.14026C16.6437 19.09654 16.9081 18.88313 17.0172 18.5853L17.5234 17.20231C17.478 17.20892 17.4323 17.21451 17.3864 17.21908L16.4082 17.31617C13.4766 17.60714 10.5234 17.60714 7.59179 17.31616L6.6136 17.21908C6.56765 17.21452 6.52201 17.20893 6.4767 17.20233L6.98291 18.5853C7.09193 18.88313 7.35633 19.09654 7.67046 19.14026zM5.68566 15.09902L5.70432 15.09219L5.72747 15.15544C5.97321 15.4713 6.34233 15.68478 6.76175 15.72641L7.73994 15.8235C10.573 16.10469 13.4269 16.10469 16.26 15.8235L17.2382 15.72641C17.6577 15.68477 18.0269 15.47121 18.2726 15.15524L18.2957 15.0922L18.3143 15.099C18.4454 14.91311 18.5354 14.69556 18.571 14.45905L18.6729 13.7812C19.0484 11.2842 19.0133 8.7426 18.569 6.2569C18.4774 5.7442 18.0563 5.3548 17.5381 5.3034L16.3076 5.1812C13.4429 4.8969 10.5571 4.8969 7.69232 5.1812L6.46186 5.3034C5.9436 5.3548 5.52258 5.7442 5.43094 6.2569C4.98662 8.7426 4.95152 11.2842 5.32701 13.7812L5.42894 14.45905C5.46451 14.69557 5.55453 14.91312 5.68566 15.09902z" />
    <glyph glyph-name="box"
      unicode="&#xF108;"
      horiz-adv-x="24" d="M5.59393 19.0096L4.53699 15.62188C4.365 15.32756 4.2459 14.99773 4.19284 14.6449L4.09091 13.9671C3.69516 11.3354 3.73216 8.6567 4.20044 6.0369C4.39049 4.9737 5.26362 4.1661 6.3384 4.0595L7.56886 3.9373C10.5157 3.6448 13.4843 3.6448 16.4311 3.9373L17.6616 4.0595C18.7363 4.1661 19.6095 4.9737 19.7995 6.0369C20.2678 8.6567 20.3048 11.3354 19.909 13.9671L19.8071 14.6449C19.7519 15.01222 19.6251 15.35462 19.4415 15.65796L18.4051 19.00548C18.1365 19.87305 17.3905 20.50707 16.491 20.63224C13.5113 21.04689 10.4871 21.04666 7.5075 20.63202C6.60973 20.50709 5.86401 19.87527 5.59393 19.0096zM16.2842 19.14656C13.4418 19.54211 10.5567 19.5419 7.71424 19.14634C7.39112 19.10137 7.1229 18.87391 7.02586 18.56285L6.52473 16.95663C6.56234 16.96194 6.6002 16.96649 6.63829 16.97027L7.61648 17.06736C10.5316 17.3567 13.4683 17.3567 16.3835 17.06736L17.3617 16.97027C17.3976 16.9667 17.4334 16.96244 17.4689 16.95751L16.9722 18.56186C16.8757 18.87369 16.6076 19.10157 16.2842 19.14656zM16 12.25C16.4142 12.25 16.75 12.5858 16.75 13C16.75 13.4142 16.4142 13.75 16 13.75H8C7.58579 13.75 7.25 13.4142 7.25 13C7.25 12.5858 7.58579 12.25 8 12.25H16z" />
    <glyph glyph-name="box-1"
      unicode="&#x62;&#x6F;&#x78;"
      horiz-adv-x="24" d="M5.59393 19.0096L4.53699 15.62188C4.365 15.32756 4.2459 14.99773 4.19284 14.6449L4.09091 13.9671C3.69516 11.3354 3.73216 8.6567 4.20044 6.0369C4.39049 4.9737 5.26362 4.1661 6.3384 4.0595L7.56886 3.9373C10.5157 3.6448 13.4843 3.6448 16.4311 3.9373L17.6616 4.0595C18.7363 4.1661 19.6095 4.9737 19.7995 6.0369C20.2678 8.6567 20.3048 11.3354 19.909 13.9671L19.8071 14.6449C19.7519 15.01222 19.6251 15.35462 19.4415 15.65796L18.4051 19.00548C18.1365 19.87305 17.3905 20.50707 16.491 20.63224C13.5113 21.04689 10.4871 21.04666 7.5075 20.63202C6.60973 20.50709 5.86401 19.87527 5.59393 19.0096zM16.2842 19.14656C13.4418 19.54211 10.5567 19.5419 7.71424 19.14634C7.39112 19.10137 7.1229 18.87391 7.02586 18.56285L6.52473 16.95663C6.56234 16.96194 6.6002 16.96649 6.63829 16.97027L7.61648 17.06736C10.5316 17.3567 13.4683 17.3567 16.3835 17.06736L17.3617 16.97027C17.3976 16.9667 17.4334 16.96244 17.4689 16.95751L16.9722 18.56186C16.8757 18.87369 16.6076 19.10157 16.2842 19.14656zM16 12.25C16.4142 12.25 16.75 12.5858 16.75 13C16.75 13.4142 16.4142 13.75 16 13.75H8C7.58579 13.75 7.25 13.4142 7.25 13C7.25 12.5858 7.58579 12.25 8 12.25H16z" />
    <glyph glyph-name="calendar-o"
      unicode="&#xF109;"
      horiz-adv-x="24" d="M7 20.75C7.41421 20.75 7.75 20.41421 7.75 20V18.33237C10.5777 18.5842 13.4223 18.5842 16.25 18.33237V20C16.25 20.41421 16.5858 20.75 17 20.75C17.4142 20.75 17.75 20.41421 17.75 20V18.18356C19.243 17.97246 20.4226 16.79153 20.6222 15.28516L20.7088 14.63221C21.0728 11.8859 21.0414 9.1016 20.6154 6.3641C20.4044 5.0081 19.3028 3.9665 17.937 3.8319L16.744 3.7142C13.589 3.4031 10.411 3.4031 7.25593 3.7142L6.06292 3.8319C4.69718 3.9665 3.59552 5.0081 3.38451 6.3641C2.95855 9.1016 2.92711 11.8859 3.29115 14.63221L3.3777 15.28516C3.57738 16.79155 4.75693 17.97249 6.25 18.18357V20C6.25 20.41421 6.58579 20.75 7 20.75zM7.44516 16.7972C10.4744 17.09592 13.5256 17.09592 16.5548 16.7972L17.4602 16.7079C18.327 16.62243 19.0208 15.95146 19.1352 15.08806L19.2218 14.43511C19.252 14.207 19.2794 13.9786 19.3039 13.75H4.69606C4.72055 13.9786 4.7479 14.20699 4.77814 14.4351L4.86469 15.08806C4.97914 15.95146 5.67296 16.62243 6.53971 16.7079L7.44516 16.7972zM4.57683 12.25C4.47865 10.3619 4.57538 8.4668 4.86667 6.5948C4.97251 5.9146 5.52509 5.3922 6.21013 5.3246L7.40314 5.207C10.4603 4.9055 13.5397 4.9055 16.5968 5.207L17.7898 5.3246C18.4748 5.3922 19.0274 5.9146 19.1333 6.5948C19.4246 8.4668 19.5213 10.3619 19.4231 12.25H4.57683z" />
    <glyph glyph-name="calendar-o-1"
      unicode="&#x63;&#x61;&#x6C;&#x65;&#x6E;&#x64;&#x61;&#x72;&#x2D;&#x6F;"
      horiz-adv-x="24" d="M7 20.75C7.41421 20.75 7.75 20.41421 7.75 20V18.33237C10.5777 18.5842 13.4223 18.5842 16.25 18.33237V20C16.25 20.41421 16.5858 20.75 17 20.75C17.4142 20.75 17.75 20.41421 17.75 20V18.18356C19.243 17.97246 20.4226 16.79153 20.6222 15.28516L20.7088 14.63221C21.0728 11.8859 21.0414 9.1016 20.6154 6.3641C20.4044 5.0081 19.3028 3.9665 17.937 3.8319L16.744 3.7142C13.589 3.4031 10.411 3.4031 7.25593 3.7142L6.06292 3.8319C4.69718 3.9665 3.59552 5.0081 3.38451 6.3641C2.95855 9.1016 2.92711 11.8859 3.29115 14.63221L3.3777 15.28516C3.57738 16.79155 4.75693 17.97249 6.25 18.18357V20C6.25 20.41421 6.58579 20.75 7 20.75zM7.44516 16.7972C10.4744 17.09592 13.5256 17.09592 16.5548 16.7972L17.4602 16.7079C18.327 16.62243 19.0208 15.95146 19.1352 15.08806L19.2218 14.43511C19.252 14.207 19.2794 13.9786 19.3039 13.75H4.69606C4.72055 13.9786 4.7479 14.20699 4.77814 14.4351L4.86469 15.08806C4.97914 15.95146 5.67296 16.62243 6.53971 16.7079L7.44516 16.7972zM4.57683 12.25C4.47865 10.3619 4.57538 8.4668 4.86667 6.5948C4.97251 5.9146 5.52509 5.3922 6.21013 5.3246L7.40314 5.207C10.4603 4.9055 13.5397 4.9055 16.5968 5.207L17.7898 5.3246C18.4748 5.3922 19.0274 5.9146 19.1333 6.5948C19.4246 8.4668 19.5213 10.3619 19.4231 12.25H4.57683z" />
    <glyph glyph-name="calendar"
      unicode="&#xF10A;"
      horiz-adv-x="24" d="M7.75 20C7.75 20.41421 7.41421 20.75 7 20.75C6.58579 20.75 6.25 20.41421 6.25 20V18.18357C4.75693 17.97249 3.57738 16.79155 3.3777 15.28516L3.29115 14.63221C3.27647 14.52151 3.26244 14.41074 3.24905 14.29992C3.21354 14.00595 3.44514 13.75 3.74125 13.75H20.2587C20.5548 13.75 20.7864 14.00595 20.7509 14.29992C20.7375 14.41074 20.7235 14.52151 20.7088 14.63221L20.6222 15.28516C20.4226 16.79153 19.243 17.97246 17.75 18.18356V20C17.75 20.41421 17.4142 20.75 17 20.75C16.5858 20.75 16.25 20.41421 16.25 20V18.33237C13.4223 18.5842 10.5777 18.5842 7.75 18.33237V20zM20.9446 11.7744C20.9358 12.0409 20.7156 12.25 20.4491 12.25H3.55087C3.28429 12.25 3.06413 12.0409 3.05537 11.7744C2.99598 9.9668 3.10578 8.1554 3.38451 6.3641C3.59552 5.0081 4.69718 3.9665 6.06292 3.8319L7.25593 3.7142C10.411 3.4031 13.589 3.4031 16.744 3.7142L17.937 3.8319C19.3028 3.9665 20.4044 5.0081 20.6154 6.3641C20.8942 8.1554 21.004 9.9668 20.9446 11.7744z" />
    <glyph glyph-name="calendar-1"
      unicode="&#x63;&#x61;&#x6C;&#x65;&#x6E;&#x64;&#x61;&#x72;"
      horiz-adv-x="24" d="M7.75 20C7.75 20.41421 7.41421 20.75 7 20.75C6.58579 20.75 6.25 20.41421 6.25 20V18.18357C4.75693 17.97249 3.57738 16.79155 3.3777 15.28516L3.29115 14.63221C3.27647 14.52151 3.26244 14.41074 3.24905 14.29992C3.21354 14.00595 3.44514 13.75 3.74125 13.75H20.2587C20.5548 13.75 20.7864 14.00595 20.7509 14.29992C20.7375 14.41074 20.7235 14.52151 20.7088 14.63221L20.6222 15.28516C20.4226 16.79153 19.243 17.97246 17.75 18.18356V20C17.75 20.41421 17.4142 20.75 17 20.75C16.5858 20.75 16.25 20.41421 16.25 20V18.33237C13.4223 18.5842 10.5777 18.5842 7.75 18.33237V20zM20.9446 11.7744C20.9358 12.0409 20.7156 12.25 20.4491 12.25H3.55087C3.28429 12.25 3.06413 12.0409 3.05537 11.7744C2.99598 9.9668 3.10578 8.1554 3.38451 6.3641C3.59552 5.0081 4.69718 3.9665 6.06292 3.8319L7.25593 3.7142C10.411 3.4031 13.589 3.4031 16.744 3.7142L17.937 3.8319C19.3028 3.9665 20.4044 5.0081 20.6154 6.3641C20.8942 8.1554 21.004 9.9668 20.9446 11.7744z" />
    <glyph glyph-name="card-o"
      unicode="&#xF10B;"
      horiz-adv-x="24" d="M19.1837 19.08776L12 19.25024L4.81627 19.08776C3.48511 19.05765 2.35801 18.09703 2.11732 16.78746C1.5356 13.6224 1.5356 10.3777 2.11732 7.2126C2.35801 5.9031 3.48511 4.9425 4.81627 4.9124L12 4.7499L19.1837 4.9124C20.5149 4.9425 21.642 5.9031 21.8827 7.2126C22.4644 10.3777 22.4644 13.6224 21.8827 16.78746C21.642 18.09703 20.5149 19.05765 19.1837 19.08776zM4.85019 17.58814L12 17.74986L19.1498 17.58814C19.7701 17.57411 20.2952 17.12651 20.4074 16.51631C20.5607 15.68233 20.6711 14.84248 20.7388 14.00006H3.26121C3.32886 14.84248 3.43933 15.68233 3.59261 16.51631C3.70476 17.12651 4.22993 17.57411 4.85019 17.58814zM3.18103 12.0001C3.18103 10.4884 3.31822 8.9767 3.59261 7.4838C3.70476 6.8736 4.22993 6.426 4.85019 6.412L12 6.2502L19.1498 6.412C19.7701 6.426 20.2952 6.8736 20.4074 7.4838C20.6818 8.9767 20.819 10.4884 20.819 12.0001H3.18103z" />
    <glyph glyph-name="card-o-1"
      unicode="&#x63;&#x61;&#x72;&#x64;&#x2D;&#x6F;"
      horiz-adv-x="24" d="M19.1837 19.08776L12 19.25024L4.81627 19.08776C3.48511 19.05765 2.35801 18.09703 2.11732 16.78746C1.5356 13.6224 1.5356 10.3777 2.11732 7.2126C2.35801 5.9031 3.48511 4.9425 4.81627 4.9124L12 4.7499L19.1837 4.9124C20.5149 4.9425 21.642 5.9031 21.8827 7.2126C22.4644 10.3777 22.4644 13.6224 21.8827 16.78746C21.642 18.09703 20.5149 19.05765 19.1837 19.08776zM4.85019 17.58814L12 17.74986L19.1498 17.58814C19.7701 17.57411 20.2952 17.12651 20.4074 16.51631C20.5607 15.68233 20.6711 14.84248 20.7388 14.00006H3.26121C3.32886 14.84248 3.43933 15.68233 3.59261 16.51631C3.70476 17.12651 4.22993 17.57411 4.85019 17.58814zM3.18103 12.0001C3.18103 10.4884 3.31822 8.9767 3.59261 7.4838C3.70476 6.8736 4.22993 6.426 4.85019 6.412L12 6.2502L19.1498 6.412C19.7701 6.426 20.2952 6.8736 20.4074 7.4838C20.6818 8.9767 20.819 10.4884 20.819 12.0001H3.18103z" />
    <glyph glyph-name="card"
      unicode="&#xF10C;"
      horiz-adv-x="24" d="M19.1841 19.33394L12 19.50024L4.81592 19.33394C3.36417 19.30444 2.13342 18.25791 1.87094 16.82978C1.28407 13.6367 1.28407 10.3634 1.87094 7.1703C2.13342 5.7422 3.36416 4.6956 4.81592 4.6661L12 4.4998L19.1841 4.6661C20.6359 4.6956 21.8666 5.7422 22.1291 7.1703C22.716 10.3634 22.716 13.6367 22.1291 16.82978C21.8666 18.25791 20.6359 19.30444 19.1841 19.33394zM21 13.0001C21 12.4478 20.5523 12.0001 20 12.0001H4C3.44772 12.0001 3 12.4478 3 13.0001C3 13.5523 3.44772 14.00006 4 14.00006H20C20.5523 14.00006 21 13.5523 21 13.0001z" />
    <glyph glyph-name="card-1"
      unicode="&#x63;&#x61;&#x72;&#x64;"
      horiz-adv-x="24" d="M19.1841 19.33394L12 19.50024L4.81592 19.33394C3.36417 19.30444 2.13342 18.25791 1.87094 16.82978C1.28407 13.6367 1.28407 10.3634 1.87094 7.1703C2.13342 5.7422 3.36416 4.6956 4.81592 4.6661L12 4.4998L19.1841 4.6661C20.6359 4.6956 21.8666 5.7422 22.1291 7.1703C22.716 10.3634 22.716 13.6367 22.1291 16.82978C21.8666 18.25791 20.6359 19.30444 19.1841 19.33394zM21 13.0001C21 12.4478 20.5523 12.0001 20 12.0001H4C3.44772 12.0001 3 12.4478 3 13.0001C3 13.5523 3.44772 14.00006 4 14.00006H20C20.5523 14.00006 21 13.5523 21 13.0001z" />
    <glyph glyph-name="chart-alt-o"
      unicode="&#xF10D;"
      horiz-adv-x="24" d="M11.25 18.21171C7.59833 17.83642 4.75 14.75086 4.75 11C4.75 6.996 7.99594 3.75 12 3.75C15.7508 3.75 18.8364 6.5984 19.2117 10.25H12C11.5858 10.25 11.25 10.5858 11.25 11V18.21171zM3.25 11C3.25 15.83253 7.16751 19.75004 12 19.75004C12.4142 19.75004 12.75 19.41425 12.75 19.00004V11.75H20C20.4142 11.75 20.75 11.4142 20.75 11C20.75 6.1675 16.8325 2.25 12 2.25C7.16751 2.25 3.25 6.1675 3.25 11zM15.5 19.32639V14.50004H20.3264C19.7633 16.88444 17.8844 18.76336 15.5 19.32639zM14.998 20.93839C18.6183 20.48786 21.4878 17.61837 21.9384 13.9981C22.0066 13.45 21.5523 13 21 13H14.5C14.2239 13 14 13.2239 14 13.5V20.00004C14 20.55232 14.45 21.00659 14.998 20.93839z" />
    <glyph glyph-name="chart-alt-o-1"
      unicode="&#x63;&#x68;&#x61;&#x72;&#x74;&#x2D;&#x61;&#x6C;&#x74;&#x2D;&#x6F;"
      horiz-adv-x="24" d="M11.25 18.21171C7.59833 17.83642 4.75 14.75086 4.75 11C4.75 6.996 7.99594 3.75 12 3.75C15.7508 3.75 18.8364 6.5984 19.2117 10.25H12C11.5858 10.25 11.25 10.5858 11.25 11V18.21171zM3.25 11C3.25 15.83253 7.16751 19.75004 12 19.75004C12.4142 19.75004 12.75 19.41425 12.75 19.00004V11.75H20C20.4142 11.75 20.75 11.4142 20.75 11C20.75 6.1675 16.8325 2.25 12 2.25C7.16751 2.25 3.25 6.1675 3.25 11zM15.5 19.32639V14.50004H20.3264C19.7633 16.88444 17.8844 18.76336 15.5 19.32639zM14.998 20.93839C18.6183 20.48786 21.4878 17.61837 21.9384 13.9981C22.0066 13.45 21.5523 13 21 13H14.5C14.2239 13 14 13.2239 14 13.5V20.00004C14 20.55232 14.45 21.00659 14.998 20.93839z" />
    <glyph glyph-name="chart-alt"
      unicode="&#xF10E;"
      horiz-adv-x="24" d="M21.9384 13.9981C21.4878 17.61837 18.6183 20.48786 14.998 20.93839C14.45 21.00659 14 20.55232 14 20.00004V13.5C14 13.2239 14.2239 13 14.5 13H21C21.5523 13 22.0066 13.45 21.9384 13.9981zM12 19.50003C7.30558 19.50003 3.5 15.69445 3.5 11C3.5 6.3056 7.30558 2.5 12 2.5C16.6944 2.5 20.5 6.3056 20.5 11C20.5 11.2762 20.2761 11.5 20 11.5H13C12.7239 11.5 12.5 11.7239 12.5 12V19.00003C12.5 19.27617 12.2761 19.50003 12 19.50003z" />
    <glyph glyph-name="chart-alt-1"
      unicode="&#x63;&#x68;&#x61;&#x72;&#x74;&#x2D;&#x61;&#x6C;&#x74;"
      horiz-adv-x="24" d="M21.9384 13.9981C21.4878 17.61837 18.6183 20.48786 14.998 20.93839C14.45 21.00659 14 20.55232 14 20.00004V13.5C14 13.2239 14.2239 13 14.5 13H21C21.5523 13 22.0066 13.45 21.9384 13.9981zM12 19.50003C7.30558 19.50003 3.5 15.69445 3.5 11C3.5 6.3056 7.30558 2.5 12 2.5C16.6944 2.5 20.5 6.3056 20.5 11C20.5 11.2762 20.2761 11.5 20 11.5H13C12.7239 11.5 12.5 11.7239 12.5 12V19.00003C12.5 19.27617 12.2761 19.50003 12 19.50003z" />
    <glyph glyph-name="chart-o"
      unicode="&#xF10F;"
      horiz-adv-x="24" d="M11.25 20.21637C7.04513 19.83745 3.75 16.30353 3.75 12C3.75 7.4437 7.44365 3.75 12 3.75C14.3214 3.75 16.4185 4.7081 17.9185 6.2524L11.5286 11.4167C11.3524 11.5591 11.25 11.7735 11.25 12V20.21637zM12.75 20.21637V12.75H20.2164C19.8597 16.70785 16.7079 19.85971 12.75 20.21637zM20.2164 11.25H14.1212L18.8621 7.4185C19.6082 8.5336 20.0895 9.8403 20.2164 11.25zM2.25 12C2.25 17.38478 6.61522 21.75 12 21.75C17.3848 21.75 21.75 17.38478 21.75 12C21.75 9.6788 20.9379 7.5452 19.583 5.8709C17.7968 3.6635 15.0632 2.25 12 2.25C6.61522 2.25 2.25 6.6152 2.25 12z" />
    <glyph glyph-name="chart-o-1"
      unicode="&#x63;&#x68;&#x61;&#x72;&#x74;&#x2D;&#x6F;"
      horiz-adv-x="24" d="M11.25 20.21637C7.04513 19.83745 3.75 16.30353 3.75 12C3.75 7.4437 7.44365 3.75 12 3.75C14.3214 3.75 16.4185 4.7081 17.9185 6.2524L11.5286 11.4167C11.3524 11.5591 11.25 11.7735 11.25 12V20.21637zM12.75 20.21637V12.75H20.2164C19.8597 16.70785 16.7079 19.85971 12.75 20.21637zM20.2164 11.25H14.1212L18.8621 7.4185C19.6082 8.5336 20.0895 9.8403 20.2164 11.25zM2.25 12C2.25 17.38478 6.61522 21.75 12 21.75C17.3848 21.75 21.75 17.38478 21.75 12C21.75 9.6788 20.9379 7.5452 19.583 5.8709C17.7968 3.6635 15.0632 2.25 12 2.25C6.61522 2.25 2.25 6.6152 2.25 12z" />
    <glyph glyph-name="chart"
      unicode="&#xF110;"
      horiz-adv-x="24" d="M11.25 21.2546C11.25 21.3712 11.1501 21.46322 11.0341 21.4515C6.24107 20.96751 2.5 16.92064 2.5 12C2.5 6.7533 6.75329 2.5 12 2.5C14.6367 2.5 17.0227 3.5746 18.7434 5.3085C18.8256 5.3913 18.8165 5.5266 18.7258 5.6L11.5286 11.4167C11.3524 11.5591 11.25 11.7735 11.25 12V21.2546zM19.6695 6.7659C19.7601 6.6926 19.8942 6.7121 19.958 6.8097C20.7671 8.0478 21.2952 9.4866 21.4515 11.0346C21.4632 11.1506 21.3712 11.25 21.2546 11.25H14.6868C14.4983 11.25 14.4145 11.013 14.5611 10.8945L19.6695 6.7659zM21.2546 12.75C21.3712 12.75 21.4632 12.8498 21.4515 12.9658C20.9996 17.44132 17.4413 20.99961 12.9658 21.45151C12.8498 21.46322 12.75 21.3712 12.75 21.2546V13.05C12.75 12.8843 12.8843 12.75 13.05 12.75H21.2546z" />
    <glyph glyph-name="chart-1"
      unicode="&#x63;&#x68;&#x61;&#x72;&#x74;"
      horiz-adv-x="24" d="M11.25 21.2546C11.25 21.3712 11.1501 21.46322 11.0341 21.4515C6.24107 20.96751 2.5 16.92064 2.5 12C2.5 6.7533 6.75329 2.5 12 2.5C14.6367 2.5 17.0227 3.5746 18.7434 5.3085C18.8256 5.3913 18.8165 5.5266 18.7258 5.6L11.5286 11.4167C11.3524 11.5591 11.25 11.7735 11.25 12V21.2546zM19.6695 6.7659C19.7601 6.6926 19.8942 6.7121 19.958 6.8097C20.7671 8.0478 21.2952 9.4866 21.4515 11.0346C21.4632 11.1506 21.3712 11.25 21.2546 11.25H14.6868C14.4983 11.25 14.4145 11.013 14.5611 10.8945L19.6695 6.7659zM21.2546 12.75C21.3712 12.75 21.4632 12.8498 21.4515 12.9658C20.9996 17.44132 17.4413 20.99961 12.9658 21.45151C12.8498 21.46322 12.75 21.3712 12.75 21.2546V13.05C12.75 12.8843 12.8843 12.75 13.05 12.75H21.2546z" />
    <glyph glyph-name="clock-o"
      unicode="&#xF111;"
      horiz-adv-x="24" d="M12.75 17C12.75 17.41421 12.4142 17.75 12 17.75C11.5858 17.75 11.25 17.41421 11.25 17V12C11.25 11.7414 11.3832 11.5011 11.6025 11.364L14.6025 9.489C14.9538 9.2695 15.4165 9.3762 15.636 9.7275C15.8555 10.0788 15.7488 10.5415 15.3975 10.761L12.75 12.4157V17zM12 20.75C7.16751 20.75 3.25 16.83249 3.25 12C3.25 7.1675 7.16751 3.25 12 3.25C16.8325 3.25 20.75 7.1675 20.75 12C20.75 16.83249 16.8325 20.75 12 20.75zM4.75 12C4.75 16.00406 7.99594 19.25 12 19.25C16.0041 19.25 19.25 16.00406 19.25 12C19.25 7.9959 16.0041 4.75 12 4.75C7.99594 4.75 4.75 7.9959 4.75 12z" />
    <glyph glyph-name="clock-o-1"
      unicode="&#x63;&#x6C;&#x6F;&#x63;&#x6B;&#x2D;&#x6F;"
      horiz-adv-x="24" d="M12.75 17C12.75 17.41421 12.4142 17.75 12 17.75C11.5858 17.75 11.25 17.41421 11.25 17V12C11.25 11.7414 11.3832 11.5011 11.6025 11.364L14.6025 9.489C14.9538 9.2695 15.4165 9.3762 15.636 9.7275C15.8555 10.0788 15.7488 10.5415 15.3975 10.761L12.75 12.4157V17zM12 20.75C7.16751 20.75 3.25 16.83249 3.25 12C3.25 7.1675 7.16751 3.25 12 3.25C16.8325 3.25 20.75 7.1675 20.75 12C20.75 16.83249 16.8325 20.75 12 20.75zM4.75 12C4.75 16.00406 7.99594 19.25 12 19.25C16.0041 19.25 19.25 16.00406 19.25 12C19.25 7.9959 16.0041 4.75 12 4.75C7.99594 4.75 4.75 7.9959 4.75 12z" />
    <glyph glyph-name="clock"
      unicode="&#xF112;"
      horiz-adv-x="24" d="M3.5 12C3.5 16.69442 7.30558 20.5 12 20.5C16.6944 20.5 20.5 16.69442 20.5 12C20.5 7.3056 16.6944 3.5 12 3.5C7.30558 3.5 3.5 7.3056 3.5 12zM12.75 17C12.75 17.41421 12.4142 17.75 12 17.75C11.5858 17.75 11.25 17.41421 11.25 17V12C11.25 11.7414 11.3832 11.5011 11.6025 11.364L14.6025 9.489C14.9538 9.2695 15.4165 9.3762 15.636 9.7275C15.8555 10.0788 15.7488 10.5415 15.3975 10.761L12.75 12.4157V17z" />
    <glyph glyph-name="clock-1"
      unicode="&#x63;&#x6C;&#x6F;&#x63;&#x6B;"
      horiz-adv-x="24" d="M3.5 12C3.5 16.69442 7.30558 20.5 12 20.5C16.6944 20.5 20.5 16.69442 20.5 12C20.5 7.3056 16.6944 3.5 12 3.5C7.30558 3.5 3.5 7.3056 3.5 12zM12.75 17C12.75 17.41421 12.4142 17.75 12 17.75C11.5858 17.75 11.25 17.41421 11.25 17V12C11.25 11.7414 11.3832 11.5011 11.6025 11.364L14.6025 9.489C14.9538 9.2695 15.4165 9.3762 15.636 9.7275C15.8555 10.0788 15.7488 10.5415 15.3975 10.761L12.75 12.4157V17z" />
    <glyph glyph-name="filter-o"
      unicode="&#xF113;"
      horiz-adv-x="24" d="M17.9859 18.57633C14.0077 19.02094 9.99236 19.02094 6.01419 18.57633C5.74502 18.54624 5.6154 18.23059 5.78574 18.02002L9.30276 13.6725C10.5627 12.1151 11.25 10.1725 11.25 8.1693V5.2801L12.75 4.1801V8.1693C12.75 10.1725 13.4374 12.1151 14.6973 13.6725L18.2143 18.02002C18.3846 18.23059 18.255 18.54624 17.9859 18.57633zM5.84758 20.06704C9.93648 20.52404 14.0636 20.52404 18.1525 20.06704C19.5994 19.90533 20.2962 18.20854 19.3805 17.07661L15.8635 12.7291C14.8195 11.4386 14.25 9.8291 14.25 8.1693V2.7C14.25 2.4174 14.0911 2.1587 13.839 2.031C13.5869 1.9032 13.2844 1.9281 13.0565 2.0952L10.0565 4.2952C9.86384 4.4365 9.75002 4.6611 9.75002 4.9V8.1693C9.75002 9.8291 9.18049 11.4386 8.13658 12.7291L4.61956 17.07661C3.70387 18.20854 4.40065 19.90533 5.84758 20.06704z" />
    <glyph glyph-name="filter-o-1"
      unicode="&#x66;&#x69;&#x6C;&#x74;&#x65;&#x72;&#x2D;&#x6F;"
      horiz-adv-x="24" d="M17.9859 18.57633C14.0077 19.02094 9.99236 19.02094 6.01419 18.57633C5.74502 18.54624 5.6154 18.23059 5.78574 18.02002L9.30276 13.6725C10.5627 12.1151 11.25 10.1725 11.25 8.1693V5.2801L12.75 4.1801V8.1693C12.75 10.1725 13.4374 12.1151 14.6973 13.6725L18.2143 18.02002C18.3846 18.23059 18.255 18.54624 17.9859 18.57633zM5.84758 20.06704C9.93648 20.52404 14.0636 20.52404 18.1525 20.06704C19.5994 19.90533 20.2962 18.20854 19.3805 17.07661L15.8635 12.7291C14.8195 11.4386 14.25 9.8291 14.25 8.1693V2.7C14.25 2.4174 14.0911 2.1587 13.839 2.031C13.5869 1.9032 13.2844 1.9281 13.0565 2.0952L10.0565 4.2952C9.86384 4.4365 9.75002 4.6611 9.75002 4.9V8.1693C9.75002 9.8291 9.18049 11.4386 8.13658 12.7291L4.61956 17.07661C3.70387 18.20854 4.40065 19.90533 5.84758 20.06704z" />
    <glyph glyph-name="filter"
      unicode="&#xF114;"
      horiz-adv-x="24" d="M18.5229 19.77407C14.1878 20.25858 9.8122 20.25858 5.47708 19.77407C4.39873 19.65354 3.87943 18.38898 4.56187 17.54539L8.33093 12.8863C9.41084 11.5514 10 9.8863 10 8.1693V5.0267C10 4.7878 10.1138 4.5631 10.3065 4.4219L13.077 2.3901C13.4601 2.1092 14 2.3828 14 2.8579V8.1693C14 9.8863 14.5892 11.5514 15.6691 12.8863L19.4381 17.54539C20.1206 18.38898 19.6013 19.65354 18.5229 19.77407z" />
    <glyph glyph-name="filter-1"
      unicode="&#x66;&#x69;&#x6C;&#x74;&#x65;&#x72;"
      horiz-adv-x="24" d="M18.5229 19.77407C14.1878 20.25858 9.8122 20.25858 5.47708 19.77407C4.39873 19.65354 3.87943 18.38898 4.56187 17.54539L8.33093 12.8863C9.41084 11.5514 10 9.8863 10 8.1693V5.0267C10 4.7878 10.1138 4.5631 10.3065 4.4219L13.077 2.3901C13.4601 2.1092 14 2.3828 14 2.8579V8.1693C14 9.8863 14.5892 11.5514 15.6691 12.8863L19.4381 17.54539C20.1206 18.38898 19.6013 19.65354 18.5229 19.77407z" />
    <glyph glyph-name="flask-alt-o"
      unicode="&#xF115;"
      horiz-adv-x="24" d="M13 9C12.4477 9 12 8.5523 12 8C12 7.4477 12.4477 7 13 7C13.5523 7 14 7.4477 14 8C14 8.5523 13.5523 9 13 9zM9.99997 7C9.44768 7 8.99997 6.5523 8.99997 6C8.99997 5.4477 9.44768 5 9.99997 5C10.5523 5 11 5.4477 11 6C11 6.5523 10.5523 7 9.99997 7zM14.4947 20.74999L14.4901 20.75H9.50975L9.50523 20.74999H8.49997C8.08576 20.74999 7.74997 20.4142 7.74997 19.99999C7.74997 19.58577 8.08576 19.24999 8.49997 19.24999H8.75975V14.18888C4.30805 12.0845 3.66493 5.948 7.66616 2.9805L7.96116 2.7617C10.3598 0.9827 13.6401 0.9827 16.0388 2.7617L16.3337 2.9805C20.335 5.948 19.6919 12.0845 15.2401 14.18888V19.24999H15.5C15.9142 19.24999 16.25 19.58577 16.25 19.99999C16.25 20.4142 15.9142 20.74999 15.5 20.74999H14.4947zM8.85472 3.9665C10.7227 2.5811 13.2772 2.5811 15.1452 3.9665L15.4402 4.1853C17.4557 5.6801 17.944 8.2169 17.0845 10.25H6.91538C6.05592 8.2169 6.54424 5.6801 8.55972 4.1853L8.85472 3.9665zM7.89682 11.75H16.1031C15.6508 12.2252 15.0909 12.6243 14.4275 12.9103C14.0104 13.0901 13.7401 13.5009 13.7401 13.9552V19.24999H10.2598V13.9552C10.2598 13.5009 9.98954 13.0901 9.57237 12.9103C8.909 12.6243 8.34906 12.2252 7.89682 11.75z" />
    <glyph glyph-name="flask-alt-o-1"
      unicode="&#x66;&#x6C;&#x61;&#x73;&#x6B;&#x2D;&#x61;&#x6C;&#x74;&#x2D;&#x6F;"
      horiz-adv-x="24" d="M13 9C12.4477 9 12 8.5523 12 8C12 7.4477 12.4477 7 13 7C13.5523 7 14 7.4477 14 8C14 8.5523 13.5523 9 13 9zM9.99997 7C9.44768 7 8.99997 6.5523 8.99997 6C8.99997 5.4477 9.44768 5 9.99997 5C10.5523 5 11 5.4477 11 6C11 6.5523 10.5523 7 9.99997 7zM14.4947 20.74999L14.4901 20.75H9.50975L9.50523 20.74999H8.49997C8.08576 20.74999 7.74997 20.4142 7.74997 19.99999C7.74997 19.58577 8.08576 19.24999 8.49997 19.24999H8.75975V14.18888C4.30805 12.0845 3.66493 5.948 7.66616 2.9805L7.96116 2.7617C10.3598 0.9827 13.6401 0.9827 16.0388 2.7617L16.3337 2.9805C20.335 5.948 19.6919 12.0845 15.2401 14.18888V19.24999H15.5C15.9142 19.24999 16.25 19.58577 16.25 19.99999C16.25 20.4142 15.9142 20.74999 15.5 20.74999H14.4947zM8.85472 3.9665C10.7227 2.5811 13.2772 2.5811 15.1452 3.9665L15.4402 4.1853C17.4557 5.6801 17.944 8.2169 17.0845 10.25H6.91538C6.05592 8.2169 6.54424 5.6801 8.55972 4.1853L8.85472 3.9665zM7.89682 11.75H16.1031C15.6508 12.2252 15.0909 12.6243 14.4275 12.9103C14.0104 13.0901 13.7401 13.5009 13.7401 13.9552V19.24999H10.2598V13.9552C10.2598 13.5009 9.98954 13.0901 9.57237 12.9103C8.909 12.6243 8.34906 12.2252 7.89682 11.75z" />
    <glyph glyph-name="flask-alt"
      unicode="&#xF116;"
      horiz-adv-x="24" d="M14.4947 20.74999L14.4901 20.75H9.50975L9.50523 20.74999H8.49997C8.08576 20.74999 7.74997 20.4142 7.74997 19.99999C7.74997 19.58577 8.08576 19.24999 8.49997 19.24999H8.75975V14.18888C4.30805 12.0845 3.66493 5.948 7.66616 2.9805L7.96116 2.7617C10.3598 0.9827 13.6401 0.9827 16.0388 2.7617L16.3337 2.9805C20.335 5.948 19.6919 12.0845 15.2401 14.18888V19.24999H15.5C15.9142 19.24999 16.25 19.58577 16.25 19.99999C16.25 20.4142 15.9142 20.74999 15.5 20.74999H14.4947zM7.89682 11.75H16.1031C15.6508 12.2252 15.0909 12.6243 14.4275 12.9103C14.0104 13.0901 13.7401 13.5009 13.7401 13.9552V19.24999H10.2598V13.9552C10.2598 13.5009 9.98954 13.0901 9.57237 12.9103C8.909 12.6243 8.34906 12.2252 7.89682 11.75zM9.99997 7C9.44768 7 8.99997 6.5523 8.99997 6C8.99997 5.4477 9.44768 5 9.99997 5C10.5523 5 11 5.4477 11 6C11 6.5523 10.5523 7 9.99997 7zM12 8C12 8.5523 12.4477 9 13 9C13.5523 9 14 8.5523 14 8C14 7.4477 13.5523 7 13 7C12.4477 7 12 7.4477 12 8z" />
    <glyph glyph-name="flask-alt-1"
      unicode="&#x66;&#x6C;&#x61;&#x73;&#x6B;&#x2D;&#x61;&#x6C;&#x74;"
      horiz-adv-x="24" d="M14.4947 20.74999L14.4901 20.75H9.50975L9.50523 20.74999H8.49997C8.08576 20.74999 7.74997 20.4142 7.74997 19.99999C7.74997 19.58577 8.08576 19.24999 8.49997 19.24999H8.75975V14.18888C4.30805 12.0845 3.66493 5.948 7.66616 2.9805L7.96116 2.7617C10.3598 0.9827 13.6401 0.9827 16.0388 2.7617L16.3337 2.9805C20.335 5.948 19.6919 12.0845 15.2401 14.18888V19.24999H15.5C15.9142 19.24999 16.25 19.58577 16.25 19.99999C16.25 20.4142 15.9142 20.74999 15.5 20.74999H14.4947zM7.89682 11.75H16.1031C15.6508 12.2252 15.0909 12.6243 14.4275 12.9103C14.0104 13.0901 13.7401 13.5009 13.7401 13.9552V19.24999H10.2598V13.9552C10.2598 13.5009 9.98954 13.0901 9.57237 12.9103C8.909 12.6243 8.34906 12.2252 7.89682 11.75zM9.99997 7C9.44768 7 8.99997 6.5523 8.99997 6C8.99997 5.4477 9.44768 5 9.99997 5C10.5523 5 11 5.4477 11 6C11 6.5523 10.5523 7 9.99997 7zM12 8C12 8.5523 12.4477 9 13 9C13.5523 9 14 8.5523 14 8C14 7.4477 13.5523 7 13 7C12.4477 7 12 7.4477 12 8z" />
    <glyph glyph-name="flask-o"
      unicode="&#xF117;"
      horiz-adv-x="24" d="M13 9C12.4477 9 12 8.5523 12 8C12 7.4477 12.4477 7 13 7C13.5523 7 14 7.4477 14 8C14 8.5523 13.5523 9 13 9zM9.99997 7C9.44768 7 8.99997 6.5523 8.99997 6C8.99997 5.4477 9.44768 5 9.99997 5C10.5523 5 11 5.4477 11 6C11 6.5523 10.5523 7 9.99997 7zM14.4931 20.74999L14.4902 20.75H9.50977L9.50681 20.74999H8.49997C8.08576 20.74999 7.74997 20.41421 7.74997 19.99999C7.74997 19.58578 8.08576 19.24999 8.49997 19.24999H8.75977V14.16299C8.75977 12.7086 8.32236 11.2879 7.50437 10.0853L4.41058 5.5371C3.62493 4.3821 4.34916 2.806 5.73727 2.6498C9.89927 2.1816 14.1007 2.1816 18.2627 2.6498C19.6508 2.806 20.375 4.3821 19.5894 5.5371L16.4956 10.0853C15.6776 11.2879 15.2402 12.7086 15.2402 14.16299V19.24999H15.5C15.9142 19.24999 16.25 19.58578 16.25 19.99999C16.25 20.41421 15.9142 20.74999 15.5 20.74999H14.4931zM5.90496 4.1404C9.95552 3.6847 14.0444 3.6847 18.095 4.1404C18.3609 4.1703 18.4996 4.4722 18.3491 4.6935L15.2553 9.2417C15.035 9.5655 14.8376 9.9024 14.6639 10.25H9.33608C9.1623 9.9024 8.9649 9.5655 8.74463 9.2417L5.65084 4.6935C5.50035 4.4722 5.63907 4.1703 5.90496 4.1404zM9.92048 11.75H14.0795C13.8556 12.5303 13.7402 13.3422 13.7402 14.16299V19.25L10.2598 19.24999V14.16299C10.2598 13.3422 10.1443 12.5303 9.92048 11.75z" />
    <glyph glyph-name="flask-o-1"
      unicode="&#x66;&#x6C;&#x61;&#x73;&#x6B;&#x2D;&#x6F;"
      horiz-adv-x="24" d="M13 9C12.4477 9 12 8.5523 12 8C12 7.4477 12.4477 7 13 7C13.5523 7 14 7.4477 14 8C14 8.5523 13.5523 9 13 9zM9.99997 7C9.44768 7 8.99997 6.5523 8.99997 6C8.99997 5.4477 9.44768 5 9.99997 5C10.5523 5 11 5.4477 11 6C11 6.5523 10.5523 7 9.99997 7zM14.4931 20.74999L14.4902 20.75H9.50977L9.50681 20.74999H8.49997C8.08576 20.74999 7.74997 20.41421 7.74997 19.99999C7.74997 19.58578 8.08576 19.24999 8.49997 19.24999H8.75977V14.16299C8.75977 12.7086 8.32236 11.2879 7.50437 10.0853L4.41058 5.5371C3.62493 4.3821 4.34916 2.806 5.73727 2.6498C9.89927 2.1816 14.1007 2.1816 18.2627 2.6498C19.6508 2.806 20.375 4.3821 19.5894 5.5371L16.4956 10.0853C15.6776 11.2879 15.2402 12.7086 15.2402 14.16299V19.24999H15.5C15.9142 19.24999 16.25 19.58578 16.25 19.99999C16.25 20.41421 15.9142 20.74999 15.5 20.74999H14.4931zM5.90496 4.1404C9.95552 3.6847 14.0444 3.6847 18.095 4.1404C18.3609 4.1703 18.4996 4.4722 18.3491 4.6935L15.2553 9.2417C15.035 9.5655 14.8376 9.9024 14.6639 10.25H9.33608C9.1623 9.9024 8.9649 9.5655 8.74463 9.2417L5.65084 4.6935C5.50035 4.4722 5.63907 4.1703 5.90496 4.1404zM9.92048 11.75H14.0795C13.8556 12.5303 13.7402 13.3422 13.7402 14.16299V19.25L10.2598 19.24999V14.16299C10.2598 13.3422 10.1443 12.5303 9.92048 11.75z" />
    <glyph glyph-name="flask"
      unicode="&#xF118;"
      horiz-adv-x="24" d="M14.4947 20.74999L14.4902 20.75H9.50977L9.50525 20.74999H8.49997C8.08576 20.74999 7.74997 20.4142 7.74997 19.99999C7.74997 19.58577 8.08576 19.24999 8.49997 19.24999H8.75977V14.16299C8.75977 12.7086 8.32236 11.2879 7.50437 10.0853L4.41058 5.5371C3.62493 4.3821 4.34916 2.806 5.73727 2.6498L5.82363 2.6402L5.84059 2.6382C9.93394 2.1777 14.066 2.1777 18.1594 2.6382L18.1765 2.6402L18.2627 2.6498C19.6508 2.806 20.375 4.3821 19.5894 5.5371L16.4956 10.0853C15.6776 11.2879 15.2402 12.7086 15.2402 14.16299V19.24999H15.5C15.9142 19.24999 16.25 19.58577 16.25 19.99999C16.25 20.4142 15.9142 20.74999 15.5 20.74999H14.4947zM9.82855 11.45H14.1714C13.8873 12.3212 13.7402 13.2364 13.7402 14.16299V19.24999H10.2598V14.16299C10.2598 13.2364 10.1127 12.3212 9.82855 11.45zM9.99997 7C9.44768 7 8.99997 6.5523 8.99997 6C8.99997 5.4477 9.44768 5 9.99997 5C10.5523 5 11 5.4477 11 6C11 6.5523 10.5523 7 9.99997 7zM12 8C12 8.5523 12.4477 9 13 9C13.5523 9 14 8.5523 14 8C14 7.4477 13.5523 7 13 7C12.4477 7 12 7.4477 12 8z" />
    <glyph glyph-name="flask-1"
      unicode="&#x66;&#x6C;&#x61;&#x73;&#x6B;"
      horiz-adv-x="24" d="M14.4947 20.74999L14.4902 20.75H9.50977L9.50525 20.74999H8.49997C8.08576 20.74999 7.74997 20.4142 7.74997 19.99999C7.74997 19.58577 8.08576 19.24999 8.49997 19.24999H8.75977V14.16299C8.75977 12.7086 8.32236 11.2879 7.50437 10.0853L4.41058 5.5371C3.62493 4.3821 4.34916 2.806 5.73727 2.6498L5.82363 2.6402L5.84059 2.6382C9.93394 2.1777 14.066 2.1777 18.1594 2.6382L18.1765 2.6402L18.2627 2.6498C19.6508 2.806 20.375 4.3821 19.5894 5.5371L16.4956 10.0853C15.6776 11.2879 15.2402 12.7086 15.2402 14.16299V19.24999H15.5C15.9142 19.24999 16.25 19.58577 16.25 19.99999C16.25 20.4142 15.9142 20.74999 15.5 20.74999H14.4947zM9.82855 11.45H14.1714C13.8873 12.3212 13.7402 13.2364 13.7402 14.16299V19.24999H10.2598V14.16299C10.2598 13.2364 10.1127 12.3212 9.82855 11.45zM9.99997 7C9.44768 7 8.99997 6.5523 8.99997 6C8.99997 5.4477 9.44768 5 9.99997 5C10.5523 5 11 5.4477 11 6C11 6.5523 10.5523 7 9.99997 7zM12 8C12 8.5523 12.4477 9 13 9C13.5523 9 14 8.5523 14 8C14 7.4477 13.5523 7 13 7C12.4477 7 12 7.4477 12 8z" />
    <glyph glyph-name="home-o"
      unicode="&#xF119;"
      horiz-adv-x="24" d="M13.5578 18.46577C12.6872 19.30113 11.3127 19.30113 10.4421 18.46577L5.81568 14.02643C5.70233 13.9177 5.62608 13.776 5.59774 13.6215C5.04361 10.5996 5.00271 7.506 5.47675 4.4705L5.58927 3.75H8.56573V9.9613C8.56573 10.3756 8.90152 10.7113 9.31573 10.7113H14.6842C15.0984 10.7113 15.4342 10.3756 15.4342 9.9613V3.75H18.4106L18.5231 4.4705C18.9972 7.506 18.9563 10.5996 18.4021 13.6215C18.3738 13.776 18.2976 13.9177 18.1842 14.02643L13.5578 18.46577zM9.40357 19.54809C10.8545 20.94035 13.1454 20.94035 14.5963 19.54809L19.2227 15.10875C19.5633 14.78196 19.7924 14.35627 19.8775 13.892C20.4621 10.7044 20.5052 7.441 20.0052 4.2391L19.8244 3.0816C19.7496 2.6029 19.3374 2.25 18.8529 2.25H14.6842C14.2699 2.25 13.9342 2.5858 13.9342 3V9.2113H10.0657V3C10.0657 2.5858 9.72994 2.25 9.31573 2.25H5.147C4.66252 2.25 4.25023 2.6029 4.17548 3.0816L3.99472 4.2391C3.49467 7.441 3.53781 10.7044 4.12234 13.892C4.20748 14.35627 4.43656 14.78196 4.77713 15.10875L9.40357 19.54809z" />
    <glyph glyph-name="home-o-1"
      unicode="&#x68;&#x6F;&#x6D;&#x65;&#x2D;&#x6F;"
      horiz-adv-x="24" d="M13.5578 18.46577C12.6872 19.30113 11.3127 19.30113 10.4421 18.46577L5.81568 14.02643C5.70233 13.9177 5.62608 13.776 5.59774 13.6215C5.04361 10.5996 5.00271 7.506 5.47675 4.4705L5.58927 3.75H8.56573V9.9613C8.56573 10.3756 8.90152 10.7113 9.31573 10.7113H14.6842C15.0984 10.7113 15.4342 10.3756 15.4342 9.9613V3.75H18.4106L18.5231 4.4705C18.9972 7.506 18.9563 10.5996 18.4021 13.6215C18.3738 13.776 18.2976 13.9177 18.1842 14.02643L13.5578 18.46577zM9.40357 19.54809C10.8545 20.94035 13.1454 20.94035 14.5963 19.54809L19.2227 15.10875C19.5633 14.78196 19.7924 14.35627 19.8775 13.892C20.4621 10.7044 20.5052 7.441 20.0052 4.2391L19.8244 3.0816C19.7496 2.6029 19.3374 2.25 18.8529 2.25H14.6842C14.2699 2.25 13.9342 2.5858 13.9342 3V9.2113H10.0657V3C10.0657 2.5858 9.72994 2.25 9.31573 2.25H5.147C4.66252 2.25 4.25023 2.6029 4.17548 3.0816L3.99472 4.2391C3.49467 7.441 3.53781 10.7044 4.12234 13.892C4.20748 14.35627 4.43656 14.78196 4.77713 15.10875L9.40357 19.54809z" />
    <glyph glyph-name="home"
      unicode="&#xF11A;"
      horiz-adv-x="24" d="M13.796 19.86391C12.8136 20.87853 11.1863 20.87853 10.2039 19.86392L5.40546 14.90818C5.12987 14.62357 4.94469 14.26376 4.87323 13.8741C4.29047 10.6961 4.24745 7.4427 4.74599 4.2504L4.92249 3.1202C4.97824 2.7632 5.2857 2.5 5.64701 2.5H8.99997C9.27611 2.5 9.49997 2.7239 9.49997 3V10H14.5V3C14.5 2.7239 14.7238 2.5 15 2.5H18.3529C18.7142 2.5 19.0217 2.7632 19.0774 3.1202L19.2539 4.2504C19.7524 7.4427 19.7094 10.6961 19.1267 13.8741C19.0552 14.26376 18.87 14.62357 18.5944 14.90818L13.796 19.86391z" />
    <glyph glyph-name="home-1"
      unicode="&#x68;&#x6F;&#x6D;&#x65;"
      horiz-adv-x="24" d="M13.796 19.86391C12.8136 20.87853 11.1863 20.87853 10.2039 19.86392L5.40546 14.90818C5.12987 14.62357 4.94469 14.26376 4.87323 13.8741C4.29047 10.6961 4.24745 7.4427 4.74599 4.2504L4.92249 3.1202C4.97824 2.7632 5.2857 2.5 5.64701 2.5H8.99997C9.27611 2.5 9.49997 2.7239 9.49997 3V10H14.5V3C14.5 2.7239 14.7238 2.5 15 2.5H18.3529C18.7142 2.5 19.0217 2.7632 19.0774 3.1202L19.2539 4.2504C19.7524 7.4427 19.7094 10.6961 19.1267 13.8741C19.0552 14.26376 18.87 14.62357 18.5944 14.90818L13.796 19.86391z" />
    <glyph glyph-name="medkit-o"
      unicode="&#xF11B;"
      horiz-adv-x="24" d="M9.50003 8.7501C9.08582 8.7501 8.75003 8.4143 8.75003 8.0001C8.75003 7.5858 9.08582 7.2501 9.50003 7.2501H11.25V5.5001C11.25 5.0858 11.5858 4.7501 12 4.7501C12.4142 4.7501 12.75 5.0858 12.75 5.5001V7.2501H14.5C14.9142 7.2501 15.25 7.5858 15.25 8.0001C15.25 8.4143 14.9142 8.7501 14.5 8.7501H12.75V10.5001C12.75 10.9143 12.4142 11.2501 12 11.2501C11.5858 11.2501 11.25 10.9143 11.25 10.5001V8.7501H9.50003zM7.25003 18.53886V17.30108C6.88074 17.27323 6.51163 17.24212 6.14276 17.20777C4.47367 17.05231 3.19739 15.65164 3.19739 13.9753V6.0248C3.19739 4.3485 4.47367 2.9478 6.14276 2.7923C10.0392 2.4294 13.9609 2.4294 17.8573 2.7923C19.5264 2.9478 20.8027 4.3485 20.8027 6.0248V13.9753C20.8027 15.65164 19.5264 17.05231 17.8573 17.20777C17.4884 17.24212 17.1193 17.27323 16.75 17.30108V18.53886C16.75 19.40511 16.1163 20.141 15.2596 20.2695L14.0397 20.45249C12.6875 20.65532 11.3126 20.65532 9.96035 20.45249L8.74043 20.2695C7.88378 20.141 7.25003 19.40511 7.25003 18.53886zM13.8172 18.96908C12.6125 19.14979 11.3876 19.14979 10.1829 18.96908L8.96295 18.7861C8.84056 18.76774 8.75003 18.66261 8.75003 18.53886V17.39627C10.9153 17.50783 13.0848 17.50783 15.25 17.39627V18.53886C15.25 18.66261 15.1595 18.76774 15.0371 18.7861L13.8172 18.96908zM17.7182 15.71423C13.9143 16.06851 10.0857 16.06851 6.28186 15.71423C5.38397 15.6306 4.69739 14.87711 4.69739 13.9753V13.7501H19.3027V13.9753C19.3027 14.87711 18.6161 15.6306 17.7182 15.71423zM19.3027 12.2501H4.69739V6.0248C4.69739 5.123 5.38397 4.3695 6.28186 4.2859C10.0857 3.9316 13.9143 3.9316 17.7182 4.2859C18.6161 4.3695 19.3027 5.123 19.3027 6.0248V12.2501z" />
    <glyph glyph-name="medkit-o-1"
      unicode="&#x6D;&#x65;&#x64;&#x6B;&#x69;&#x74;&#x2D;&#x6F;"
      horiz-adv-x="24" d="M9.50003 8.7501C9.08582 8.7501 8.75003 8.4143 8.75003 8.0001C8.75003 7.5858 9.08582 7.2501 9.50003 7.2501H11.25V5.5001C11.25 5.0858 11.5858 4.7501 12 4.7501C12.4142 4.7501 12.75 5.0858 12.75 5.5001V7.2501H14.5C14.9142 7.2501 15.25 7.5858 15.25 8.0001C15.25 8.4143 14.9142 8.7501 14.5 8.7501H12.75V10.5001C12.75 10.9143 12.4142 11.2501 12 11.2501C11.5858 11.2501 11.25 10.9143 11.25 10.5001V8.7501H9.50003zM7.25003 18.53886V17.30108C6.88074 17.27323 6.51163 17.24212 6.14276 17.20777C4.47367 17.05231 3.19739 15.65164 3.19739 13.9753V6.0248C3.19739 4.3485 4.47367 2.9478 6.14276 2.7923C10.0392 2.4294 13.9609 2.4294 17.8573 2.7923C19.5264 2.9478 20.8027 4.3485 20.8027 6.0248V13.9753C20.8027 15.65164 19.5264 17.05231 17.8573 17.20777C17.4884 17.24212 17.1193 17.27323 16.75 17.30108V18.53886C16.75 19.40511 16.1163 20.141 15.2596 20.2695L14.0397 20.45249C12.6875 20.65532 11.3126 20.65532 9.96035 20.45249L8.74043 20.2695C7.88378 20.141 7.25003 19.40511 7.25003 18.53886zM13.8172 18.96908C12.6125 19.14979 11.3876 19.14979 10.1829 18.96908L8.96295 18.7861C8.84056 18.76774 8.75003 18.66261 8.75003 18.53886V17.39627C10.9153 17.50783 13.0848 17.50783 15.25 17.39627V18.53886C15.25 18.66261 15.1595 18.76774 15.0371 18.7861L13.8172 18.96908zM17.7182 15.71423C13.9143 16.06851 10.0857 16.06851 6.28186 15.71423C5.38397 15.6306 4.69739 14.87711 4.69739 13.9753V13.7501H19.3027V13.9753C19.3027 14.87711 18.6161 15.6306 17.7182 15.71423zM19.3027 12.2501H4.69739V6.0248C4.69739 5.123 5.38397 4.3695 6.28186 4.2859C10.0857 3.9316 13.9143 3.9316 17.7182 4.2859C18.6161 4.3695 19.3027 5.123 19.3027 6.0248V12.2501z" />
    <glyph glyph-name="medkit"
      unicode="&#xF11C;"
      horiz-adv-x="24" d="M7.25003 18.53886V17.05037C6.88848 17.02299 6.5271 16.99248 6.16594 16.95884C4.72505 16.82464 3.60132 15.48794 3.46196 14.04961C3.44598 13.8847 3.5817 13.75 3.74739 13.75H20.2527C20.4183 13.75 20.5541 13.8847 20.5381 14.04961C20.3987 15.48794 19.275 16.82464 17.8341 16.95884C17.4729 16.99248 17.1116 17.02299 16.75 17.05036V18.53886C16.75 19.40511 16.1163 20.141 15.2596 20.2695L14.0397 20.45249C12.6875 20.65532 11.3126 20.65532 9.96035 20.45249L8.74043 20.2695C7.88378 20.141 7.25003 19.40511 7.25003 18.53886zM13.8172 18.96908C12.6125 19.14979 11.3876 19.14979 10.1829 18.96908L8.96295 18.7861C8.84056 18.76774 8.75003 18.66261 8.75003 18.53886V17.14594C10.9152 17.25794 13.0848 17.25794 15.25 17.14594V18.53886C15.25 18.66261 15.1595 18.76774 15.0371 18.7861L13.8172 18.96908zM20.5527 11.95C20.5527 12.1157 20.4183 12.25 20.2527 12.25H3.74739C3.5817 12.25 3.44739 12.1157 3.44739 11.95V6.0248C3.44739 4.4775 4.62538 3.1847 6.16594 3.0413C10.0469 2.6798 13.9531 2.6798 17.8341 3.0413C19.3747 3.1847 20.5527 4.4775 20.5527 6.0248V11.95zM9.50003 8.75C9.08582 8.75 8.75003 8.4143 8.75003 8C8.75003 7.5858 9.08582 7.25 9.50003 7.25H11.25V5.5C11.25 5.0858 11.5858 4.75 12 4.75C12.4142 4.75 12.75 5.0858 12.75 5.5V7.25H14.5C14.9142 7.25 15.25 7.5858 15.25 8C15.25 8.4143 14.9142 8.75 14.5 8.75H12.75V10.5C12.75 10.9143 12.4142 11.25 12 11.25C11.5858 11.25 11.25 10.9143 11.25 10.5V8.75H9.50003z" />
    <glyph glyph-name="medkit-1"
      unicode="&#x6D;&#x65;&#x64;&#x6B;&#x69;&#x74;"
      horiz-adv-x="24" d="M7.25003 18.53886V17.05037C6.88848 17.02299 6.5271 16.99248 6.16594 16.95884C4.72505 16.82464 3.60132 15.48794 3.46196 14.04961C3.44598 13.8847 3.5817 13.75 3.74739 13.75H20.2527C20.4183 13.75 20.5541 13.8847 20.5381 14.04961C20.3987 15.48794 19.275 16.82464 17.8341 16.95884C17.4729 16.99248 17.1116 17.02299 16.75 17.05036V18.53886C16.75 19.40511 16.1163 20.141 15.2596 20.2695L14.0397 20.45249C12.6875 20.65532 11.3126 20.65532 9.96035 20.45249L8.74043 20.2695C7.88378 20.141 7.25003 19.40511 7.25003 18.53886zM13.8172 18.96908C12.6125 19.14979 11.3876 19.14979 10.1829 18.96908L8.96295 18.7861C8.84056 18.76774 8.75003 18.66261 8.75003 18.53886V17.14594C10.9152 17.25794 13.0848 17.25794 15.25 17.14594V18.53886C15.25 18.66261 15.1595 18.76774 15.0371 18.7861L13.8172 18.96908zM20.5527 11.95C20.5527 12.1157 20.4183 12.25 20.2527 12.25H3.74739C3.5817 12.25 3.44739 12.1157 3.44739 11.95V6.0248C3.44739 4.4775 4.62538 3.1847 6.16594 3.0413C10.0469 2.6798 13.9531 2.6798 17.8341 3.0413C19.3747 3.1847 20.5527 4.4775 20.5527 6.0248V11.95zM9.50003 8.75C9.08582 8.75 8.75003 8.4143 8.75003 8C8.75003 7.5858 9.08582 7.25 9.50003 7.25H11.25V5.5C11.25 5.0858 11.5858 4.75 12 4.75C12.4142 4.75 12.75 5.0858 12.75 5.5V7.25H14.5C14.9142 7.25 15.25 7.5858 15.25 8C15.25 8.4143 14.9142 8.75 14.5 8.75H12.75V10.5C12.75 10.9143 12.4142 11.25 12 11.25C11.5858 11.25 11.25 10.9143 11.25 10.5V8.75H9.50003z" />
    <glyph glyph-name="moon-o"
      unicode="&#xF11D;"
      horiz-adv-x="24" d="M11.4863 19.23208C7.72194 18.96856 4.75 15.83135 4.75 12C4.75 7.9959 7.99594 4.75 12 4.75C15.2079 4.75 17.9297 6.8338 18.8848 9.7213C18.1497 9.4176 17.3441 9.25 16.5 9.25C13.0482 9.25 10.25 12.0482 10.25 15.5C10.25 16.89914 10.7101 18.19091 11.4863 19.23208zM3.25 12C3.25 16.83249 7.16751 20.75 12 20.75C12.4496 20.75 12.8918 20.71602 13.3239 20.65038C13.6229 20.60497 13.8654 20.38447 13.9388 20.09114C14.0123 19.79781 13.9025 19.48905 13.6602 19.30806C12.4992 18.44065 11.75 17.05792 11.75 15.5C11.75 12.8766 13.8766 10.75 16.5 10.75C17.6342 10.75 18.6738 11.1466 19.4905 11.8094C19.7252 11.9998 20.0513 12.0308 20.3176 11.8879C20.584 11.745 20.7386 11.4563 20.7097 11.1554C20.2843 6.7188 16.5477 3.25 12 3.25C7.16751 3.25 3.25 7.1675 3.25 12z" />
    <glyph glyph-name="moon-o-1"
      unicode="&#x6D;&#x6F;&#x6F;&#x6E;&#x2D;&#x6F;"
      horiz-adv-x="24" d="M11.4863 19.23208C7.72194 18.96856 4.75 15.83135 4.75 12C4.75 7.9959 7.99594 4.75 12 4.75C15.2079 4.75 17.9297 6.8338 18.8848 9.7213C18.1497 9.4176 17.3441 9.25 16.5 9.25C13.0482 9.25 10.25 12.0482 10.25 15.5C10.25 16.89914 10.7101 18.19091 11.4863 19.23208zM3.25 12C3.25 16.83249 7.16751 20.75 12 20.75C12.4496 20.75 12.8918 20.71602 13.3239 20.65038C13.6229 20.60497 13.8654 20.38447 13.9388 20.09114C14.0123 19.79781 13.9025 19.48905 13.6602 19.30806C12.4992 18.44065 11.75 17.05792 11.75 15.5C11.75 12.8766 13.8766 10.75 16.5 10.75C17.6342 10.75 18.6738 11.1466 19.4905 11.8094C19.7252 11.9998 20.0513 12.0308 20.3176 11.8879C20.584 11.745 20.7386 11.4563 20.7097 11.1554C20.2843 6.7188 16.5477 3.25 12 3.25C7.16751 3.25 3.25 7.1675 3.25 12z" />
    <glyph glyph-name="moon"
      unicode="&#xF11E;"
      horiz-adv-x="24" d="M12 20.5C7.30558 20.5 3.5 16.69442 3.5 12C3.5 7.3056 7.30558 3.5 12 3.5C16.4176 3.5 20.0476 6.8697 20.4608 11.1793C20.4801 11.3798 20.377 11.5723 20.1995 11.6676C20.0219 11.7628 19.8045 11.7422 19.6481 11.6152C18.7884 10.9176 17.6937 10.5 16.5 10.5C13.7386 10.5 11.5 12.7386 11.5 15.5C11.5 17.1401 12.2892 18.59577 13.5106 19.50833C13.6721 19.62899 13.7453 19.83484 13.6963 20.03039C13.6473 20.22594 13.4857 20.37294 13.2864 20.40322C12.8666 20.46698 12.437 20.5 12 20.5z" />
    <glyph glyph-name="moon-1"
      unicode="&#x6D;&#x6F;&#x6F;&#x6E;"
      horiz-adv-x="24" d="M12 20.5C7.30558 20.5 3.5 16.69442 3.5 12C3.5 7.3056 7.30558 3.5 12 3.5C16.4176 3.5 20.0476 6.8697 20.4608 11.1793C20.4801 11.3798 20.377 11.5723 20.1995 11.6676C20.0219 11.7628 19.8045 11.7422 19.6481 11.6152C18.7884 10.9176 17.6937 10.5 16.5 10.5C13.7386 10.5 11.5 12.7386 11.5 15.5C11.5 17.1401 12.2892 18.59577 13.5106 19.50833C13.6721 19.62899 13.7453 19.83484 13.6963 20.03039C13.6473 20.22594 13.4857 20.37294 13.2864 20.40322C12.8666 20.46698 12.437 20.5 12 20.5z" />
    <glyph glyph-name="palette-o"
      unicode="&#xF11F;"
      horiz-adv-x="24" d="M8.8901 8.5974C8.3419 8.5303 7.95185 8.0316 8.01889 7.4834C8.08593 6.9352 8.58469 6.5451 9.13289 6.6121C9.68109 6.6792 10.0711 7.1779 10.0041 7.7261C9.93706 8.2743 9.4383 8.6644 8.8901 8.5974zM5.54813 11.211C5.48108 11.7592 5.87114 12.2579 6.41934 12.325C6.96754 12.392 7.46629 12.002 7.53334 11.4538C7.60038 10.9056 7.21032 10.4068 6.66212 10.3398C6.11392 10.2727 5.61517 10.6628 5.54813 11.211zM7.91897 16.53818C7.37077 16.47114 6.98072 15.97238 7.04776 15.42418C7.1148 14.87598 7.61356 14.48593 8.16176 14.55297C8.70996 14.62001 9.10001 15.11877 9.03297 15.66697C8.96593 16.21517 8.46717 16.60522 7.91897 16.53818zM15.6973 14.71895C15.6303 15.26715 16.0203 15.76591 16.5685 15.83295C17.1167 15.89999 17.6155 15.50994 17.6825 14.96174C17.7496 14.41354 17.3595 13.9148 16.8113 13.8477C16.2631 13.7807 15.7644 14.17075 15.6973 14.71895zM11.9926 13.1214C11.4444 13.0544 11.0544 12.5556 11.1214 12.0074C11.1885 11.4592 11.6872 11.0692 12.2354 11.1362C12.7836 11.2033 13.1737 11.702 13.1066 12.2502C13.0396 12.7984 12.5408 13.1885 11.9926 13.1214zM11.3931 16.96306C11.3261 17.51126 11.7161 18.01002 12.2643 18.07706C12.8125 18.1441 13.3113 17.75405 13.3783 17.20585C13.4453 16.65765 13.0553 16.15889 12.5071 16.09185C11.9589 16.02481 11.4601 16.41486 11.3931 16.96306zM2.25292 12.2363C2.38342 17.61954 6.85315 21.8777 12.2363 21.7472C17.6195 21.61671 21.8777 17.14698 21.7472 11.7638C21.7389 11.4228 21.6243 11.1114 21.4132 10.8549C21.2113 10.6097 20.9499 10.4488 20.6919 10.3411C20.1899 10.1316 19.5606 10.0659 18.9379 10.0616C16.2493 10.0435 13.9139 7.7308 13.7613 5.0033C13.7257 4.367 13.6172 3.7197 13.3433 3.2112C13.2015 2.9479 13.0023 2.6973 12.7234 2.516C12.4378 2.3303 12.1102 2.2445 11.7638 2.2529C6.38058 2.3834 2.12243 6.8532 2.25292 12.2363zM12.2 20.24764C7.64498 20.35806 3.8629 16.75501 3.75248 12.2C3.64206 7.645 7.24511 3.8629 11.8001 3.7525C11.8682 3.7508 11.8934 3.7655 11.9058 3.7735C11.9248 3.7859 11.9688 3.8224 12.0226 3.9223C12.14 4.1403 12.2321 4.5243 12.2636 5.0871C12.4581 8.562 15.4045 11.5378 18.9278 11.5616C19.4899 11.5654 19.8843 11.6295 20.114 11.7254C20.1952 11.7592 20.2331 11.7879 20.2477 11.8009C20.3576 16.35557 16.7547 20.13723 12.2 20.24764z" />
    <glyph glyph-name="palette-o-1"
      unicode="&#x70;&#x61;&#x6C;&#x65;&#x74;&#x74;&#x65;&#x2D;&#x6F;"
      horiz-adv-x="24" d="M8.8901 8.5974C8.3419 8.5303 7.95185 8.0316 8.01889 7.4834C8.08593 6.9352 8.58469 6.5451 9.13289 6.6121C9.68109 6.6792 10.0711 7.1779 10.0041 7.7261C9.93706 8.2743 9.4383 8.6644 8.8901 8.5974zM5.54813 11.211C5.48108 11.7592 5.87114 12.2579 6.41934 12.325C6.96754 12.392 7.46629 12.002 7.53334 11.4538C7.60038 10.9056 7.21032 10.4068 6.66212 10.3398C6.11392 10.2727 5.61517 10.6628 5.54813 11.211zM7.91897 16.53818C7.37077 16.47114 6.98072 15.97238 7.04776 15.42418C7.1148 14.87598 7.61356 14.48593 8.16176 14.55297C8.70996 14.62001 9.10001 15.11877 9.03297 15.66697C8.96593 16.21517 8.46717 16.60522 7.91897 16.53818zM15.6973 14.71895C15.6303 15.26715 16.0203 15.76591 16.5685 15.83295C17.1167 15.89999 17.6155 15.50994 17.6825 14.96174C17.7496 14.41354 17.3595 13.9148 16.8113 13.8477C16.2631 13.7807 15.7644 14.17075 15.6973 14.71895zM11.9926 13.1214C11.4444 13.0544 11.0544 12.5556 11.1214 12.0074C11.1885 11.4592 11.6872 11.0692 12.2354 11.1362C12.7836 11.2033 13.1737 11.702 13.1066 12.2502C13.0396 12.7984 12.5408 13.1885 11.9926 13.1214zM11.3931 16.96306C11.3261 17.51126 11.7161 18.01002 12.2643 18.07706C12.8125 18.1441 13.3113 17.75405 13.3783 17.20585C13.4453 16.65765 13.0553 16.15889 12.5071 16.09185C11.9589 16.02481 11.4601 16.41486 11.3931 16.96306zM2.25292 12.2363C2.38342 17.61954 6.85315 21.8777 12.2363 21.7472C17.6195 21.61671 21.8777 17.14698 21.7472 11.7638C21.7389 11.4228 21.6243 11.1114 21.4132 10.8549C21.2113 10.6097 20.9499 10.4488 20.6919 10.3411C20.1899 10.1316 19.5606 10.0659 18.9379 10.0616C16.2493 10.0435 13.9139 7.7308 13.7613 5.0033C13.7257 4.367 13.6172 3.7197 13.3433 3.2112C13.2015 2.9479 13.0023 2.6973 12.7234 2.516C12.4378 2.3303 12.1102 2.2445 11.7638 2.2529C6.38058 2.3834 2.12243 6.8532 2.25292 12.2363zM12.2 20.24764C7.64498 20.35806 3.8629 16.75501 3.75248 12.2C3.64206 7.645 7.24511 3.8629 11.8001 3.7525C11.8682 3.7508 11.8934 3.7655 11.9058 3.7735C11.9248 3.7859 11.9688 3.8224 12.0226 3.9223C12.14 4.1403 12.2321 4.5243 12.2636 5.0871C12.4581 8.562 15.4045 11.5378 18.9278 11.5616C19.4899 11.5654 19.8843 11.6295 20.114 11.7254C20.1952 11.7592 20.2331 11.7879 20.2477 11.8009C20.3576 16.35557 16.7547 20.13723 12.2 20.24764z" />
    <glyph glyph-name="palette"
      unicode="&#xF120;"
      horiz-adv-x="24" d="M12.2303 21.49728C6.98512 21.62443 2.63 17.47546 2.50285 12.2303C2.3757 6.9851 6.52467 2.63 11.7698 2.5029C12.1075 2.4947 12.4129 2.5894 12.668 2.7824C12.9156 2.9696 13.0871 3.2272 13.207 3.5028C13.4422 4.0431 13.5214 4.7517 13.5254 5.4824C13.5398 8.1242 15.8573 10.4184 18.4726 10.3193C19.1921 10.2921 19.8862 10.3306 20.4211 10.507C20.6917 10.5963 20.9551 10.7315 21.1568 10.9425C21.3687 11.1641 21.4894 11.446 21.4973 11.7698C21.6244 17.01501 17.4754 21.37013 12.2303 21.49728zM8.8901 8.5974C8.3419 8.5303 7.95184 8.0316 8.01888 7.4834C8.08593 6.9352 8.58468 6.5451 9.13288 6.6121C9.68108 6.6792 10.0711 7.1779 10.0041 7.7261C9.93705 8.2743 9.4383 8.6644 8.8901 8.5974zM5.54812 11.211C5.48108 11.7592 5.87113 12.2579 6.41933 12.325C6.96753 12.392 7.46629 12.002 7.53333 11.4538C7.60037 10.9056 7.21032 10.4068 6.66212 10.3398C6.11391 10.2727 5.61516 10.6628 5.54812 11.211zM7.91897 16.53819C7.37077 16.47114 6.98071 15.97239 7.04775 15.42419C7.1148 14.87599 7.61355 14.48593 8.16175 14.55298C8.70995 14.62002 9.1 15.11877 9.03296 15.66697C8.96592 16.21517 8.46717 16.60523 7.91897 16.53819zM15.6973 14.71896C15.6303 15.26716 16.0203 15.76591 16.5685 15.83295C17.1167 15.9 17.6155 15.50994 17.6825 14.96174C17.7496 14.41354 17.3595 13.9148 16.8113 13.8477C16.2631 13.7807 15.7644 14.17076 15.6973 14.71896zM11.9926 13.1214C11.4444 13.0544 11.0544 12.5556 11.1214 12.0074C11.1885 11.4592 11.6872 11.0692 12.2354 11.1362C12.7836 11.2033 13.1737 11.702 13.1066 12.2502C13.0396 12.7984 12.5408 13.1885 11.9926 13.1214zM11.3931 16.96307C11.326 17.51127 11.7161 18.01002 12.2643 18.07706C12.8125 18.14411 13.3113 17.75405 13.3783 17.20585C13.4453 16.65765 13.0553 16.1589 12.5071 16.09186C11.9589 16.02481 11.4601 16.41487 11.3931 16.96307z" />
    <glyph glyph-name="palette-1"
      unicode="&#x70;&#x61;&#x6C;&#x65;&#x74;&#x74;&#x65;"
      horiz-adv-x="24" d="M12.2303 21.49728C6.98512 21.62443 2.63 17.47546 2.50285 12.2303C2.3757 6.9851 6.52467 2.63 11.7698 2.5029C12.1075 2.4947 12.4129 2.5894 12.668 2.7824C12.9156 2.9696 13.0871 3.2272 13.207 3.5028C13.4422 4.0431 13.5214 4.7517 13.5254 5.4824C13.5398 8.1242 15.8573 10.4184 18.4726 10.3193C19.1921 10.2921 19.8862 10.3306 20.4211 10.507C20.6917 10.5963 20.9551 10.7315 21.1568 10.9425C21.3687 11.1641 21.4894 11.446 21.4973 11.7698C21.6244 17.01501 17.4754 21.37013 12.2303 21.49728zM8.8901 8.5974C8.3419 8.5303 7.95184 8.0316 8.01888 7.4834C8.08593 6.9352 8.58468 6.5451 9.13288 6.6121C9.68108 6.6792 10.0711 7.1779 10.0041 7.7261C9.93705 8.2743 9.4383 8.6644 8.8901 8.5974zM5.54812 11.211C5.48108 11.7592 5.87113 12.2579 6.41933 12.325C6.96753 12.392 7.46629 12.002 7.53333 11.4538C7.60037 10.9056 7.21032 10.4068 6.66212 10.3398C6.11391 10.2727 5.61516 10.6628 5.54812 11.211zM7.91897 16.53819C7.37077 16.47114 6.98071 15.97239 7.04775 15.42419C7.1148 14.87599 7.61355 14.48593 8.16175 14.55298C8.70995 14.62002 9.1 15.11877 9.03296 15.66697C8.96592 16.21517 8.46717 16.60523 7.91897 16.53819zM15.6973 14.71896C15.6303 15.26716 16.0203 15.76591 16.5685 15.83295C17.1167 15.9 17.6155 15.50994 17.6825 14.96174C17.7496 14.41354 17.3595 13.9148 16.8113 13.8477C16.2631 13.7807 15.7644 14.17076 15.6973 14.71896zM11.9926 13.1214C11.4444 13.0544 11.0544 12.5556 11.1214 12.0074C11.1885 11.4592 11.6872 11.0692 12.2354 11.1362C12.7836 11.2033 13.1737 11.702 13.1066 12.2502C13.0396 12.7984 12.5408 13.1885 11.9926 13.1214zM11.3931 16.96307C11.326 17.51127 11.7161 18.01002 12.2643 18.07706C12.8125 18.14411 13.3113 17.75405 13.3783 17.20585C13.4453 16.65765 13.0553 16.1589 12.5071 16.09186C11.9589 16.02481 11.4601 16.41487 11.3931 16.96307z" />
    <glyph glyph-name="pulse-o"
      unicode="&#xF121;"
      horiz-adv-x="24" d="M8.23967 19.12406C8.18246 19.46509 7.8995 19.72281 7.55462 19.74799C7.20974 19.77317 6.89234 19.5593 6.7862 19.23019L4.69627 12.75H2C1.58579 12.75 1.25 12.4142 1.25 12C1.25 11.5858 1.58579 11.25 2 11.25H5.24242C5.56795 11.25 5.8563 11.46 5.95622 11.7698L7.26937 15.84141L9.10882 4.8759C9.16679 4.5303 9.45634 4.2709 9.8062 4.2512C10.1561 4.2314 10.473 4.4566 10.5695 4.7934L12.999 13.2734L14.2789 8.7939C14.3613 8.5053 14.608 8.2936 14.9059 8.2559C15.2037 8.2182 15.4954 8.3618 15.6471 8.6209L17.1874 11.25H18.3535C18.68 10.0957 19.7412 9.25 21 9.25C22.5188 9.25 23.75 10.4812 23.75 12C23.75 13.5188 22.5188 14.74998 21 14.74998C19.7412 14.74998 18.68 13.9042 18.3535 12.75H16.7576C16.4913 12.75 16.245 12.6088 16.1105 12.3791L15.2394 10.8922L13.7211 16.20602C13.6292 16.5279 13.335 16.74986 13.0003 16.74998C12.6655 16.75011 12.3712 16.52836 12.279 16.20655L10.04 8.3916L8.23967 19.12406zM19.75 12C19.75 12.6903 20.3096 13.25 21 13.25C21.6904 13.25 22.25 12.6903 22.25 12C22.25 11.3096 21.6904 10.75 21 10.75C20.3096 10.75 19.75 11.3096 19.75 12z" />
    <glyph glyph-name="pulse-o-1"
      unicode="&#x70;&#x75;&#x6C;&#x73;&#x65;&#x2D;&#x6F;"
      horiz-adv-x="24" d="M8.23967 19.12406C8.18246 19.46509 7.8995 19.72281 7.55462 19.74799C7.20974 19.77317 6.89234 19.5593 6.7862 19.23019L4.69627 12.75H2C1.58579 12.75 1.25 12.4142 1.25 12C1.25 11.5858 1.58579 11.25 2 11.25H5.24242C5.56795 11.25 5.8563 11.46 5.95622 11.7698L7.26937 15.84141L9.10882 4.8759C9.16679 4.5303 9.45634 4.2709 9.8062 4.2512C10.1561 4.2314 10.473 4.4566 10.5695 4.7934L12.999 13.2734L14.2789 8.7939C14.3613 8.5053 14.608 8.2936 14.9059 8.2559C15.2037 8.2182 15.4954 8.3618 15.6471 8.6209L17.1874 11.25H18.3535C18.68 10.0957 19.7412 9.25 21 9.25C22.5188 9.25 23.75 10.4812 23.75 12C23.75 13.5188 22.5188 14.74998 21 14.74998C19.7412 14.74998 18.68 13.9042 18.3535 12.75H16.7576C16.4913 12.75 16.245 12.6088 16.1105 12.3791L15.2394 10.8922L13.7211 16.20602C13.6292 16.5279 13.335 16.74986 13.0003 16.74998C12.6655 16.75011 12.3712 16.52836 12.279 16.20655L10.04 8.3916L8.23967 19.12406zM19.75 12C19.75 12.6903 20.3096 13.25 21 13.25C21.6904 13.25 22.25 12.6903 22.25 12C22.25 11.3096 21.6904 10.75 21 10.75C20.3096 10.75 19.75 11.3096 19.75 12z" />
    <glyph glyph-name="pulse"
      unicode="&#xF122;"
      horiz-adv-x="24" d="M7.55462 19.74799C7.8995 19.72281 8.18246 19.46509 8.23967 19.12406L10.04 8.3916L12.279 16.20655C12.3712 16.52836 12.6655 16.75011 13.0003 16.74998C13.335 16.74986 13.6292 16.5279 13.7211 16.20602L15.2394 10.8922L16.1105 12.3791C16.245 12.6088 16.4913 12.75 16.7576 12.75H18.6145C18.933 13.7643 19.8806 14.49998 21 14.49998C22.3807 14.49998 23.5 13.3807 23.5 12C23.5 10.6193 22.3807 9.5 21 9.5C19.8806 9.5 18.933 10.2357 18.6145 11.25H17.1874L15.6471 8.6209C15.4954 8.3618 15.2037 8.2182 14.9059 8.2559C14.608 8.2936 14.3613 8.5053 14.2789 8.7939L12.999 13.2734L10.5695 4.7934C10.473 4.4566 10.1561 4.2314 9.8062 4.2512C9.45634 4.2709 9.16679 4.5303 9.10882 4.8759L7.26937 15.84141L5.95622 11.7698C5.8563 11.46 5.56795 11.25 5.24242 11.25H2C1.58579 11.25 1.25 11.5858 1.25 12C1.25 12.4142 1.58579 12.75 2 12.75H4.69627L6.7862 19.23019C6.89234 19.5593 7.20974 19.77317 7.55462 19.74799z" />
    <glyph glyph-name="pulse-1"
      unicode="&#x70;&#x75;&#x6C;&#x73;&#x65;"
      horiz-adv-x="24" d="M7.55462 19.74799C7.8995 19.72281 8.18246 19.46509 8.23967 19.12406L10.04 8.3916L12.279 16.20655C12.3712 16.52836 12.6655 16.75011 13.0003 16.74998C13.335 16.74986 13.6292 16.5279 13.7211 16.20602L15.2394 10.8922L16.1105 12.3791C16.245 12.6088 16.4913 12.75 16.7576 12.75H18.6145C18.933 13.7643 19.8806 14.49998 21 14.49998C22.3807 14.49998 23.5 13.3807 23.5 12C23.5 10.6193 22.3807 9.5 21 9.5C19.8806 9.5 18.933 10.2357 18.6145 11.25H17.1874L15.6471 8.6209C15.4954 8.3618 15.2037 8.2182 14.9059 8.2559C14.608 8.2936 14.3613 8.5053 14.2789 8.7939L12.999 13.2734L10.5695 4.7934C10.473 4.4566 10.1561 4.2314 9.8062 4.2512C9.45634 4.2709 9.16679 4.5303 9.10882 4.8759L7.26937 15.84141L5.95622 11.7698C5.8563 11.46 5.56795 11.25 5.24242 11.25H2C1.58579 11.25 1.25 11.5858 1.25 12C1.25 12.4142 1.58579 12.75 2 12.75H4.69627L6.7862 19.23019C6.89234 19.5593 7.20974 19.77317 7.55462 19.74799z" />
    <glyph glyph-name="shopping-bag-o"
      unicode="&#xF123;"
      horiz-adv-x="24" d="M7.25002 16.75V16.86988C7.25002 19.03762 8.71763 20.93036 10.8171 21.47021C11.5931 21.66976 12.407 21.66976 13.183 21.47021C15.2824 20.93036 16.75 19.03762 16.75 16.86987V16.75H18.2511C18.8224 16.75 19.3073 16.33102 19.3901 15.76577L19.6088 14.27332C20.0393 11.3349 20.0393 8.3493 19.6088 5.4109C19.4008 3.9919 18.2565 2.8948 16.83 2.7469L16.2011 2.6817C13.4079 2.392 10.5921 2.392 7.79888 2.6817L7.17001 2.7469C5.74347 2.8948 4.59918 3.9919 4.39127 5.4109C3.96072 8.3493 3.96072 11.3349 4.39127 14.27332L4.60994 15.76577C4.69276 16.33102 5.17761 16.75 5.74889 16.75H7.25002zM11.1906 20.01748C11.7216 20.15401 12.2784 20.15401 12.8094 20.01748C14.2459 19.6481 15.25 18.35307 15.25 16.86987V16.75H8.75002V16.86988C8.75002 18.35307 9.75417 19.6481 11.1906 20.01748zM7.25002 15.25V13C7.25002 12.5858 7.5858 12.25 8.00002 12.25C8.41423 12.25 8.75002 12.5858 8.75002 13V15.25H15.25V13C15.25 12.5858 15.5858 12.25 16 12.25C16.4142 12.25 16.75 12.5858 16.75 13V15.25H17.9496L18.1246 14.05586C18.534 11.2616 18.534 8.4226 18.1246 5.6283C18.0162 4.8882 17.4193 4.316 16.6753 4.2389L16.0464 4.1736C13.356 3.8946 10.644 3.8946 7.95361 4.1736L7.32474 4.2389C6.5807 4.316 5.98386 4.8882 5.87542 5.6283C5.46601 8.4226 5.46601 11.2616 5.87542 14.05586L6.05039 15.25H7.25002z" />
    <glyph glyph-name="shopping-bag-o-1"
      unicode="&#x73;&#x68;&#x6F;&#x70;&#x70;&#x69;&#x6E;&#x67;&#x2D;&#x62;&#x61;&#x67;&#x2D;&#x6F;"
      horiz-adv-x="24" d="M7.25002 16.75V16.86988C7.25002 19.03762 8.71763 20.93036 10.8171 21.47021C11.5931 21.66976 12.407 21.66976 13.183 21.47021C15.2824 20.93036 16.75 19.03762 16.75 16.86987V16.75H18.2511C18.8224 16.75 19.3073 16.33102 19.3901 15.76577L19.6088 14.27332C20.0393 11.3349 20.0393 8.3493 19.6088 5.4109C19.4008 3.9919 18.2565 2.8948 16.83 2.7469L16.2011 2.6817C13.4079 2.392 10.5921 2.392 7.79888 2.6817L7.17001 2.7469C5.74347 2.8948 4.59918 3.9919 4.39127 5.4109C3.96072 8.3493 3.96072 11.3349 4.39127 14.27332L4.60994 15.76577C4.69276 16.33102 5.17761 16.75 5.74889 16.75H7.25002zM11.1906 20.01748C11.7216 20.15401 12.2784 20.15401 12.8094 20.01748C14.2459 19.6481 15.25 18.35307 15.25 16.86987V16.75H8.75002V16.86988C8.75002 18.35307 9.75417 19.6481 11.1906 20.01748zM7.25002 15.25V13C7.25002 12.5858 7.5858 12.25 8.00002 12.25C8.41423 12.25 8.75002 12.5858 8.75002 13V15.25H15.25V13C15.25 12.5858 15.5858 12.25 16 12.25C16.4142 12.25 16.75 12.5858 16.75 13V15.25H17.9496L18.1246 14.05586C18.534 11.2616 18.534 8.4226 18.1246 5.6283C18.0162 4.8882 17.4193 4.316 16.6753 4.2389L16.0464 4.1736C13.356 3.8946 10.644 3.8946 7.95361 4.1736L7.32474 4.2389C6.5807 4.316 5.98386 4.8882 5.87542 5.6283C5.46601 8.4226 5.46601 11.2616 5.87542 14.05586L6.05039 15.25H7.25002z" />
    <glyph glyph-name="shopping-bag"
      unicode="&#xF124;"
      horiz-adv-x="24" d="M7.25002 16.86988V16.5H5.74889C5.30168 16.5 4.92213 16.17201 4.8573 15.72953L4.63863 14.23708C4.2116 11.3227 4.2116 8.3616 4.63863 5.4471C4.82996 4.1412 5.88301 3.1317 7.1958 2.9955L7.82467 2.9303C10.6008 2.6424 13.3992 2.6424 16.1754 2.9303L16.8042 2.9955C18.117 3.1317 19.1701 4.1412 19.3614 5.4471C19.7884 8.3616 19.7884 11.3227 19.3614 14.23708L19.1427 15.72953C19.0779 16.17201 18.6983 16.5 18.2511 16.5H16.75V16.86987C16.75 19.03762 15.2824 20.93036 13.183 21.47021C12.407 21.66976 11.5931 21.66976 10.8171 21.47021C8.71763 20.93036 7.25002 19.03762 7.25002 16.86988zM12.8094 20.01748C12.2784 20.15401 11.7216 20.15401 11.1906 20.01748C9.75417 19.6481 8.75002 18.35307 8.75002 16.86988V16.5H15.25V16.86987C15.25 18.35307 14.2459 19.6481 12.8094 20.01748zM8.75002 15C8.75002 15.41421 8.41423 15.75 8.00002 15.75C7.5858 15.75 7.25002 15.41421 7.25002 15V13C7.25002 12.5858 7.5858 12.25 8.00002 12.25C8.41423 12.25 8.75002 12.5858 8.75002 13V15zM16.75 15C16.75 15.41421 16.4142 15.75 16 15.75C15.5858 15.75 15.25 15.41421 15.25 15V13C15.25 12.5858 15.5858 12.25 16 12.25C16.4142 12.25 16.75 12.5858 16.75 13V15z" />
    <glyph glyph-name="shopping-bag-1"
      unicode="&#x73;&#x68;&#x6F;&#x70;&#x70;&#x69;&#x6E;&#x67;&#x2D;&#x62;&#x61;&#x67;"
      horiz-adv-x="24" d="M7.25002 16.86988V16.5H5.74889C5.30168 16.5 4.92213 16.17201 4.8573 15.72953L4.63863 14.23708C4.2116 11.3227 4.2116 8.3616 4.63863 5.4471C4.82996 4.1412 5.88301 3.1317 7.1958 2.9955L7.82467 2.9303C10.6008 2.6424 13.3992 2.6424 16.1754 2.9303L16.8042 2.9955C18.117 3.1317 19.1701 4.1412 19.3614 5.4471C19.7884 8.3616 19.7884 11.3227 19.3614 14.23708L19.1427 15.72953C19.0779 16.17201 18.6983 16.5 18.2511 16.5H16.75V16.86987C16.75 19.03762 15.2824 20.93036 13.183 21.47021C12.407 21.66976 11.5931 21.66976 10.8171 21.47021C8.71763 20.93036 7.25002 19.03762 7.25002 16.86988zM12.8094 20.01748C12.2784 20.15401 11.7216 20.15401 11.1906 20.01748C9.75417 19.6481 8.75002 18.35307 8.75002 16.86988V16.5H15.25V16.86987C15.25 18.35307 14.2459 19.6481 12.8094 20.01748zM8.75002 15C8.75002 15.41421 8.41423 15.75 8.00002 15.75C7.5858 15.75 7.25002 15.41421 7.25002 15V13C7.25002 12.5858 7.5858 12.25 8.00002 12.25C8.41423 12.25 8.75002 12.5858 8.75002 13V15zM16.75 15C16.75 15.41421 16.4142 15.75 16 15.75C15.5858 15.75 15.25 15.41421 15.25 15V13C15.25 12.5858 15.5858 12.25 16 12.25C16.4142 12.25 16.75 12.5858 16.75 13V15z" />
    <glyph glyph-name="shopping-basket-o"
      unicode="&#xF125;"
      horiz-adv-x="24" d="M10 10.75C10.4142 10.75 10.75 10.4142 10.75 10V8C10.75 7.5858 10.4142 7.25 10 7.25C9.58579 7.25 9.25 7.5858 9.25 8V10C9.25 10.4142 9.58579 10.75 10 10.75zM14.75 10C14.75 10.4142 14.4142 10.75 14 10.75C13.5858 10.75 13.25 10.4142 13.25 10V8C13.25 7.5858 13.5858 7.25 14 7.25C14.4142 7.25 14.75 7.5858 14.75 8V10zM9.64952 20.625C9.85662 20.98372 9.73372 21.44241 9.375 21.64952C9.01628 21.85662 8.55759 21.73372 8.35048 21.375L6.35048 17.9109C6.32052 17.859 6.29746 17.80501 6.28103 17.75H6C4.48122 17.75 3.25 16.51878 3.25 15C3.25 14.14087 3.64397 13.3738 4.26109 12.8695L4.92803 8.2848L5.37478 6.1916C5.64244 4.9375 6.66623 3.9849 7.93636 3.8082C10.6325 3.433 13.3675 3.433 16.0636 3.8082C17.3338 3.9849 18.3576 4.9375 18.6252 6.1916L19.072 8.2848L19.7389 12.8695C20.356 13.3738 20.75 14.14087 20.75 15C20.75 16.51878 19.5188 17.75 18 17.75H17.719C17.7025 17.80501 17.6795 17.859 17.6495 17.9109L15.6495 21.375C15.4424 21.73372 14.9837 21.85662 14.625 21.64952C14.2663 21.44241 14.1434 20.98372 14.3505 20.625L16.0104 17.75H7.98963L9.64952 20.625zM18.1335 12.2532C18.0892 12.2511 18.0447 12.25 18 12.25H6C5.95525 12.25 5.91076 12.2511 5.86653 12.2532L6.4053 8.5496L6.84174 6.5047C6.97772 5.8676 7.49783 5.3837 8.14308 5.2939C10.702 4.9378 13.298 4.9378 15.8569 5.2939C16.5022 5.3837 17.0223 5.8676 17.1583 6.5047L17.5947 8.5496L18.1335 12.2532zM4.75 15C4.75 15.69035 5.30964 16.25 6 16.25H18C18.6904 16.25 19.25 15.69035 19.25 15C19.25 14.30964 18.6904 13.75 18 13.75H6C5.30964 13.75 4.75 14.30964 4.75 15z" />
    <glyph glyph-name="shopping-basket-o-1"
      unicode="&#x73;&#x68;&#x6F;&#x70;&#x70;&#x69;&#x6E;&#x67;&#x2D;&#x62;&#x61;&#x73;&#x6B;&#x65;&#x74;&#x2D;&#x6F;"
      horiz-adv-x="24" d="M10 10.75C10.4142 10.75 10.75 10.4142 10.75 10V8C10.75 7.5858 10.4142 7.25 10 7.25C9.58579 7.25 9.25 7.5858 9.25 8V10C9.25 10.4142 9.58579 10.75 10 10.75zM14.75 10C14.75 10.4142 14.4142 10.75 14 10.75C13.5858 10.75 13.25 10.4142 13.25 10V8C13.25 7.5858 13.5858 7.25 14 7.25C14.4142 7.25 14.75 7.5858 14.75 8V10zM9.64952 20.625C9.85662 20.98372 9.73372 21.44241 9.375 21.64952C9.01628 21.85662 8.55759 21.73372 8.35048 21.375L6.35048 17.9109C6.32052 17.859 6.29746 17.80501 6.28103 17.75H6C4.48122 17.75 3.25 16.51878 3.25 15C3.25 14.14087 3.64397 13.3738 4.26109 12.8695L4.92803 8.2848L5.37478 6.1916C5.64244 4.9375 6.66623 3.9849 7.93636 3.8082C10.6325 3.433 13.3675 3.433 16.0636 3.8082C17.3338 3.9849 18.3576 4.9375 18.6252 6.1916L19.072 8.2848L19.7389 12.8695C20.356 13.3738 20.75 14.14087 20.75 15C20.75 16.51878 19.5188 17.75 18 17.75H17.719C17.7025 17.80501 17.6795 17.859 17.6495 17.9109L15.6495 21.375C15.4424 21.73372 14.9837 21.85662 14.625 21.64952C14.2663 21.44241 14.1434 20.98372 14.3505 20.625L16.0104 17.75H7.98963L9.64952 20.625zM18.1335 12.2532C18.0892 12.2511 18.0447 12.25 18 12.25H6C5.95525 12.25 5.91076 12.2511 5.86653 12.2532L6.4053 8.5496L6.84174 6.5047C6.97772 5.8676 7.49783 5.3837 8.14308 5.2939C10.702 4.9378 13.298 4.9378 15.8569 5.2939C16.5022 5.3837 17.0223 5.8676 17.1583 6.5047L17.5947 8.5496L18.1335 12.2532zM4.75 15C4.75 15.69035 5.30964 16.25 6 16.25H18C18.6904 16.25 19.25 15.69035 19.25 15C19.25 14.30964 18.6904 13.75 18 13.75H6C5.30964 13.75 4.75 14.30964 4.75 15z" />
    <glyph glyph-name="shopping-basket"
      unicode="&#xF126;"
      horiz-adv-x="24" d="M9.64952 19.625C9.85662 19.98372 9.73372 20.44241 9.375 20.64952C9.01628 20.85662 8.55759 20.73372 8.35048 20.375L6.6906 17.49999H5.5C4.39543 17.49999 3.5 16.60456 3.5 15.5C3.5 14.78401 3.87623 14.15589 4.44179 13.8026C4.49938 13.7666 4.56663 13.75 4.63454 13.75H19.3655C19.4334 13.75 19.5006 13.7666 19.5582 13.8026C20.1238 14.15589 20.5 14.78401 20.5 15.5C20.5 16.60456 19.6046 17.49999 18.5 17.49999H17.3094L15.6495 20.375C15.4424 20.73372 14.9837 20.85662 14.625 20.64952C14.2663 20.44241 14.1434 19.98372 14.3505 19.625L15.5774 17.49999H8.42265L9.64952 19.625zM19.3348 12.0154C19.3563 12.1378 19.2621 12.25 19.1378 12.25H4.86221C4.73792 12.25 4.64373 12.1378 4.66523 12.0154L5.66574 6.3169C5.87388 5.1314 6.82291 4.2155 8.01503 4.0497C10.6589 3.6818 13.3411 3.6818 15.985 4.0497C17.1771 4.2155 18.1261 5.1314 18.3343 6.3169L19.3348 12.0154zM10.75 10C10.75 10.4142 10.4142 10.75 10 10.75C9.58579 10.75 9.25 10.4142 9.25 10V8C9.25 7.5858 9.58579 7.25 10 7.25C10.4142 7.25 10.75 7.5858 10.75 8V10zM14 10.75C14.4142 10.75 14.75 10.4142 14.75 10V8C14.75 7.5858 14.4142 7.25 14 7.25C13.5858 7.25 13.25 7.5858 13.25 8V10C13.25 10.4142 13.5858 10.75 14 10.75z" />
    <glyph glyph-name="shopping-basket-1"
      unicode="&#x73;&#x68;&#x6F;&#x70;&#x70;&#x69;&#x6E;&#x67;&#x2D;&#x62;&#x61;&#x73;&#x6B;&#x65;&#x74;"
      horiz-adv-x="24" d="M9.64952 19.625C9.85662 19.98372 9.73372 20.44241 9.375 20.64952C9.01628 20.85662 8.55759 20.73372 8.35048 20.375L6.6906 17.49999H5.5C4.39543 17.49999 3.5 16.60456 3.5 15.5C3.5 14.78401 3.87623 14.15589 4.44179 13.8026C4.49938 13.7666 4.56663 13.75 4.63454 13.75H19.3655C19.4334 13.75 19.5006 13.7666 19.5582 13.8026C20.1238 14.15589 20.5 14.78401 20.5 15.5C20.5 16.60456 19.6046 17.49999 18.5 17.49999H17.3094L15.6495 20.375C15.4424 20.73372 14.9837 20.85662 14.625 20.64952C14.2663 20.44241 14.1434 19.98372 14.3505 19.625L15.5774 17.49999H8.42265L9.64952 19.625zM19.3348 12.0154C19.3563 12.1378 19.2621 12.25 19.1378 12.25H4.86221C4.73792 12.25 4.64373 12.1378 4.66523 12.0154L5.66574 6.3169C5.87388 5.1314 6.82291 4.2155 8.01503 4.0497C10.6589 3.6818 13.3411 3.6818 15.985 4.0497C17.1771 4.2155 18.1261 5.1314 18.3343 6.3169L19.3348 12.0154zM10.75 10C10.75 10.4142 10.4142 10.75 10 10.75C9.58579 10.75 9.25 10.4142 9.25 10V8C9.25 7.5858 9.58579 7.25 10 7.25C10.4142 7.25 10.75 7.5858 10.75 8V10zM14 10.75C14.4142 10.75 14.75 10.4142 14.75 10V8C14.75 7.5858 14.4142 7.25 14 7.25C13.5858 7.25 13.25 7.5858 13.25 8V10C13.25 10.4142 13.5858 10.75 14 10.75z" />
    <glyph glyph-name="shopping-cart-o"
      unicode="&#xF127;"
      horiz-adv-x="24" d="M19.1477 18.75H5.33514L4.15497 20.8654C4.0225 21.10285 3.7719 21.25 3.5 21.25H2C1.58579 21.25 1.25 20.91421 1.25 20.5C1.25 20.08579 1.58579 19.75 2 19.75H3.0596L4.22429 17.66235L6.91037 11.7191L6.91312 11.7131L7.14971 11.1896L4.45287 8.313C4.25895 8.1061 4.19825 7.8076 4.29599 7.5415C4.39372 7.2753 4.63317 7.087 4.91486 7.0548L7.37299 6.7739C10.4477 6.4225 13.5524 6.4225 16.627 6.7739L19.0852 7.0548C19.4967 7.1019 19.7922 7.4736 19.7452 7.8852C19.6981 8.2967 19.3264 8.5922 18.9149 8.5451L16.4567 8.2642C13.4952 7.9258 10.5048 7.9258 7.54331 8.2642L6.56779 8.3757L8.54717 10.487C8.56632 10.5075 8.5841 10.5287 8.60052 10.5506L9.35334 10.4526C10.4083 10.3153 11.4746 10.2884 12.5351 10.3723C15.0086 10.5679 17.301 11.7449 18.9015 13.6409L19.4795 14.32575C19.499 14.34875 19.517 14.37289 19.5335 14.39806L20.6109 16.03991C21.3745 17.20367 20.5397 18.75 19.1477 18.75zM8.65627 12.056C8.49086 12.0775 8.34823 12.1825 8.27858 12.334L8.27725 12.3369L6.05674 17.25H19.1477C19.3466 17.25 19.4658 17.0291 19.3567 16.86284L18.3042 15.25877L17.7552 14.60848C16.4132 13.0186 14.4909 12.0317 12.4169 11.8676C11.4603 11.792 10.4984 11.8163 9.54688 11.9401L8.65627 12.056zM6.5 5.5C5.67157 5.5 5 4.8284 5 4C5 3.1716 5.67157 2.5 6.5 2.5C7.32843 2.5 8 3.1716 8 4C8 4.8284 7.32843 5.5 6.5 5.5zM16 4C16 4.8284 16.6716 5.5 17.5 5.5C18.3284 5.5 19 4.8284 19 4C19 3.1716 18.3284 2.5 17.5 2.5C16.6716 2.5 16 3.1716 16 4z" />
    <glyph glyph-name="shopping-cart-o-1"
      unicode="&#x73;&#x68;&#x6F;&#x70;&#x70;&#x69;&#x6E;&#x67;&#x2D;&#x63;&#x61;&#x72;&#x74;&#x2D;&#x6F;"
      horiz-adv-x="24" d="M19.1477 18.75H5.33514L4.15497 20.8654C4.0225 21.10285 3.7719 21.25 3.5 21.25H2C1.58579 21.25 1.25 20.91421 1.25 20.5C1.25 20.08579 1.58579 19.75 2 19.75H3.0596L4.22429 17.66235L6.91037 11.7191L6.91312 11.7131L7.14971 11.1896L4.45287 8.313C4.25895 8.1061 4.19825 7.8076 4.29599 7.5415C4.39372 7.2753 4.63317 7.087 4.91486 7.0548L7.37299 6.7739C10.4477 6.4225 13.5524 6.4225 16.627 6.7739L19.0852 7.0548C19.4967 7.1019 19.7922 7.4736 19.7452 7.8852C19.6981 8.2967 19.3264 8.5922 18.9149 8.5451L16.4567 8.2642C13.4952 7.9258 10.5048 7.9258 7.54331 8.2642L6.56779 8.3757L8.54717 10.487C8.56632 10.5075 8.5841 10.5287 8.60052 10.5506L9.35334 10.4526C10.4083 10.3153 11.4746 10.2884 12.5351 10.3723C15.0086 10.5679 17.301 11.7449 18.9015 13.6409L19.4795 14.32575C19.499 14.34875 19.517 14.37289 19.5335 14.39806L20.6109 16.03991C21.3745 17.20367 20.5397 18.75 19.1477 18.75zM8.65627 12.056C8.49086 12.0775 8.34823 12.1825 8.27858 12.334L8.27725 12.3369L6.05674 17.25H19.1477C19.3466 17.25 19.4658 17.0291 19.3567 16.86284L18.3042 15.25877L17.7552 14.60848C16.4132 13.0186 14.4909 12.0317 12.4169 11.8676C11.4603 11.792 10.4984 11.8163 9.54688 11.9401L8.65627 12.056zM6.5 5.5C5.67157 5.5 5 4.8284 5 4C5 3.1716 5.67157 2.5 6.5 2.5C7.32843 2.5 8 3.1716 8 4C8 4.8284 7.32843 5.5 6.5 5.5zM16 4C16 4.8284 16.6716 5.5 17.5 5.5C18.3284 5.5 19 4.8284 19 4C19 3.1716 18.3284 2.5 17.5 2.5C16.6716 2.5 16 3.1716 16 4z" />
    <glyph glyph-name="shopping-cart"
      unicode="&#xF128;"
      horiz-adv-x="24" d="M19.1477 18.75H5.33514L4.15497 20.8654C4.0225 21.10285 3.7719 21.25 3.5 21.25H2C1.58579 21.25 1.25 20.91421 1.25 20.5C1.25 20.08579 1.58579 19.75 2 19.75H3.0596L4.22429 17.66235L6.91037 11.7191L6.91312 11.7131L7.14971 11.1896L4.45287 8.313C4.25895 8.1061 4.19825 7.8076 4.29599 7.5415C4.39372 7.2753 4.63317 7.087 4.91486 7.0548L7.37299 6.7739C10.4477 6.4225 13.5524 6.4225 16.627 6.7739L19.0852 7.0548C19.4967 7.1019 19.7922 7.4736 19.7452 7.8852C19.6981 8.2967 19.3264 8.5922 18.9149 8.5451L16.4567 8.2642C13.4952 7.9258 10.5048 7.9258 7.54331 8.2642L6.56779 8.3757L8.54717 10.487C8.56632 10.5075 8.5841 10.5287 8.60052 10.5506L9.35334 10.4526C10.4083 10.3153 11.4746 10.2884 12.5351 10.3723C15.0086 10.5679 17.301 11.7449 18.9015 13.6409L19.4795 14.32575C19.499 14.34875 19.517 14.37289 19.5335 14.39806L20.6109 16.03991C21.3745 17.20367 20.5397 18.75 19.1477 18.75zM6.5 5.5C5.67157 5.5 5 4.8284 5 4C5 3.1716 5.67157 2.5 6.5 2.5C7.32843 2.5 8 3.1716 8 4C8 4.8284 7.32843 5.5 6.5 5.5zM16 4C16 4.8284 16.6716 5.5 17.5 5.5C18.3284 5.5 19 4.8284 19 4C19 3.1716 18.3284 2.5 17.5 2.5C16.6716 2.5 16 3.1716 16 4z" />
    <glyph glyph-name="shopping-cart-1"
      unicode="&#x73;&#x68;&#x6F;&#x70;&#x70;&#x69;&#x6E;&#x67;&#x2D;&#x63;&#x61;&#x72;&#x74;"
      horiz-adv-x="24" d="M19.1477 18.75H5.33514L4.15497 20.8654C4.0225 21.10285 3.7719 21.25 3.5 21.25H2C1.58579 21.25 1.25 20.91421 1.25 20.5C1.25 20.08579 1.58579 19.75 2 19.75H3.0596L4.22429 17.66235L6.91037 11.7191L6.91312 11.7131L7.14971 11.1896L4.45287 8.313C4.25895 8.1061 4.19825 7.8076 4.29599 7.5415C4.39372 7.2753 4.63317 7.087 4.91486 7.0548L7.37299 6.7739C10.4477 6.4225 13.5524 6.4225 16.627 6.7739L19.0852 7.0548C19.4967 7.1019 19.7922 7.4736 19.7452 7.8852C19.6981 8.2967 19.3264 8.5922 18.9149 8.5451L16.4567 8.2642C13.4952 7.9258 10.5048 7.9258 7.54331 8.2642L6.56779 8.3757L8.54717 10.487C8.56632 10.5075 8.5841 10.5287 8.60052 10.5506L9.35334 10.4526C10.4083 10.3153 11.4746 10.2884 12.5351 10.3723C15.0086 10.5679 17.301 11.7449 18.9015 13.6409L19.4795 14.32575C19.499 14.34875 19.517 14.37289 19.5335 14.39806L20.6109 16.03991C21.3745 17.20367 20.5397 18.75 19.1477 18.75zM6.5 5.5C5.67157 5.5 5 4.8284 5 4C5 3.1716 5.67157 2.5 6.5 2.5C7.32843 2.5 8 3.1716 8 4C8 4.8284 7.32843 5.5 6.5 5.5zM16 4C16 4.8284 16.6716 5.5 17.5 5.5C18.3284 5.5 19 4.8284 19 4C19 3.1716 18.3284 2.5 17.5 2.5C16.6716 2.5 16 3.1716 16 4z" />
    <glyph glyph-name="sun-o"
      unicode="&#xF129;"
      horiz-adv-x="24" d="M12 22.75C12.4142 22.75 12.75 22.41421 12.75 22V21C12.75 20.58579 12.4142 20.25 12 20.25C11.5858 20.25 11.25 20.58579 11.25 21V22C11.25 22.41421 11.5858 22.75 12 22.75zM6.25 12C6.25 15.17564 8.82436 17.75 12 17.75C15.1756 17.75 17.75 15.17564 17.75 12C17.75 8.8244 15.1756 6.25 12 6.25C8.82436 6.25 6.25 8.8244 6.25 12zM12 16.25C9.65279 16.25 7.75 14.34721 7.75 12C7.75 9.6528 9.65279 7.75 12 7.75C14.3472 7.75 16.25 9.6528 16.25 12C16.25 14.34721 14.3472 16.25 12 16.25zM5.45928 19.60138C5.16638 19.89427 4.69151 19.89427 4.39862 19.60138C4.10572 19.30848 4.10572 18.83361 4.39862 18.54071L5.10572 17.83361C5.39862 17.54071 5.87349 17.54071 6.16638 17.83361C6.45928 18.1265 6.45928 18.60138 6.16638 18.89427L5.45928 19.60138zM22.75 12C22.75 11.5858 22.4142 11.25 22 11.25H21C20.5858 11.25 20.25 11.5858 20.25 12C20.25 12.4142 20.5858 12.75 21 12.75H22C22.4142 12.75 22.75 12.4142 22.75 12zM19.6014 18.54072C19.8943 18.83362 19.8943 19.30849 19.6014 19.60138C19.3085 19.89428 18.8336 19.89428 18.5407 19.60138L17.8336 18.89428C17.5407 18.60138 17.5407 18.12651 17.8336 17.83362C18.1265 17.54072 18.6014 17.54072 18.8943 17.83362L19.6014 18.54072zM12 3.75C12.4142 3.75 12.75 3.4142 12.75 3V2C12.75 1.5858 12.4142 1.25 12 1.25C11.5858 1.25 11.25 1.5858 11.25 2V3C11.25 3.4142 11.5858 3.75 12 3.75zM18.8943 6.1664C18.6014 6.4593 18.1266 6.4593 17.8337 6.1664C17.5408 5.8735 17.5408 5.3986 17.8337 5.1057L18.5408 4.3986C18.8337 4.1057 19.3085 4.1057 19.6014 4.3986C19.8943 4.6915 19.8943 5.1664 19.6014 5.4593L18.8943 6.1664zM3.75 12C3.75 11.5858 3.41421 11.25 3 11.25H2C1.58579 11.25 1.25 11.5858 1.25 12C1.25 12.4142 1.58579 12.75 2 12.75H3C3.41421 12.75 3.75 12.4142 3.75 12zM6.16632 5.1057C6.45921 5.3986 6.45921 5.8735 6.16632 6.1664C5.87342 6.4593 5.39855 6.4593 5.10566 6.1664L4.39855 5.4593C4.10566 5.1664 4.10566 4.6915 4.39855 4.3986C4.69144 4.1057 5.16632 4.1057 5.45921 4.3986L6.16632 5.1057z" />
    <glyph glyph-name="sun-o-1"
      unicode="&#x73;&#x75;&#x6E;&#x2D;&#x6F;"
      horiz-adv-x="24" d="M12 22.75C12.4142 22.75 12.75 22.41421 12.75 22V21C12.75 20.58579 12.4142 20.25 12 20.25C11.5858 20.25 11.25 20.58579 11.25 21V22C11.25 22.41421 11.5858 22.75 12 22.75zM6.25 12C6.25 15.17564 8.82436 17.75 12 17.75C15.1756 17.75 17.75 15.17564 17.75 12C17.75 8.8244 15.1756 6.25 12 6.25C8.82436 6.25 6.25 8.8244 6.25 12zM12 16.25C9.65279 16.25 7.75 14.34721 7.75 12C7.75 9.6528 9.65279 7.75 12 7.75C14.3472 7.75 16.25 9.6528 16.25 12C16.25 14.34721 14.3472 16.25 12 16.25zM5.45928 19.60138C5.16638 19.89427 4.69151 19.89427 4.39862 19.60138C4.10572 19.30848 4.10572 18.83361 4.39862 18.54071L5.10572 17.83361C5.39862 17.54071 5.87349 17.54071 6.16638 17.83361C6.45928 18.1265 6.45928 18.60138 6.16638 18.89427L5.45928 19.60138zM22.75 12C22.75 11.5858 22.4142 11.25 22 11.25H21C20.5858 11.25 20.25 11.5858 20.25 12C20.25 12.4142 20.5858 12.75 21 12.75H22C22.4142 12.75 22.75 12.4142 22.75 12zM19.6014 18.54072C19.8943 18.83362 19.8943 19.30849 19.6014 19.60138C19.3085 19.89428 18.8336 19.89428 18.5407 19.60138L17.8336 18.89428C17.5407 18.60138 17.5407 18.12651 17.8336 17.83362C18.1265 17.54072 18.6014 17.54072 18.8943 17.83362L19.6014 18.54072zM12 3.75C12.4142 3.75 12.75 3.4142 12.75 3V2C12.75 1.5858 12.4142 1.25 12 1.25C11.5858 1.25 11.25 1.5858 11.25 2V3C11.25 3.4142 11.5858 3.75 12 3.75zM18.8943 6.1664C18.6014 6.4593 18.1266 6.4593 17.8337 6.1664C17.5408 5.8735 17.5408 5.3986 17.8337 5.1057L18.5408 4.3986C18.8337 4.1057 19.3085 4.1057 19.6014 4.3986C19.8943 4.6915 19.8943 5.1664 19.6014 5.4593L18.8943 6.1664zM3.75 12C3.75 11.5858 3.41421 11.25 3 11.25H2C1.58579 11.25 1.25 11.5858 1.25 12C1.25 12.4142 1.58579 12.75 2 12.75H3C3.41421 12.75 3.75 12.4142 3.75 12zM6.16632 5.1057C6.45921 5.3986 6.45921 5.8735 6.16632 6.1664C5.87342 6.4593 5.39855 6.4593 5.10566 6.1664L4.39855 5.4593C4.10566 5.1664 4.10566 4.6915 4.39855 4.3986C4.69144 4.1057 5.16632 4.1057 5.45921 4.3986L6.16632 5.1057z" />
    <glyph glyph-name="sun"
      unicode="&#xF12A;"
      horiz-adv-x="24" d="M12 22.75C12.4142 22.75 12.75 22.41421 12.75 22V21C12.75 20.58579 12.4142 20.25 12 20.25C11.5858 20.25 11.25 20.58579 11.25 21V22C11.25 22.41421 11.5858 22.75 12 22.75zM12 17.75C8.82436 17.75 6.25 15.17564 6.25 12C6.25 8.8244 8.82436 6.25 12 6.25C15.1756 6.25 17.75 8.8244 17.75 12C17.75 15.17564 15.1756 17.75 12 17.75zM5.45928 19.60138C5.16638 19.89427 4.69151 19.89427 4.39862 19.60138C4.10572 19.30848 4.10572 18.83361 4.39862 18.54071L5.10572 17.83361C5.39862 17.54071 5.87349 17.54071 6.16638 17.83361C6.45928 18.1265 6.45928 18.60138 6.16638 18.89427L5.45928 19.60138zM22.75 12C22.75 11.5858 22.4142 11.25 22 11.25H21C20.5858 11.25 20.25 11.5858 20.25 12C20.25 12.4142 20.5858 12.75 21 12.75H22C22.4142 12.75 22.75 12.4142 22.75 12zM19.6014 18.54072C19.8943 18.83362 19.8943 19.30849 19.6014 19.60138C19.3085 19.89428 18.8336 19.89428 18.5407 19.60138L17.8336 18.89428C17.5407 18.60138 17.5407 18.12651 17.8336 17.83362C18.1265 17.54072 18.6014 17.54072 18.8943 17.83362L19.6014 18.54072zM12 3.75C12.4142 3.75 12.75 3.4142 12.75 3V2C12.75 1.5858 12.4142 1.25 12 1.25C11.5858 1.25 11.25 1.5858 11.25 2V3C11.25 3.4142 11.5858 3.75 12 3.75zM18.8943 6.1664C18.6014 6.4593 18.1266 6.4593 17.8337 6.1664C17.5408 5.8735 17.5408 5.3986 17.8337 5.1057L18.5408 4.3986C18.8337 4.1057 19.3085 4.1057 19.6014 4.3986C19.8943 4.6915 19.8943 5.1664 19.6014 5.4593L18.8943 6.1664zM3.75 12C3.75 11.5858 3.41421 11.25 3 11.25H2C1.58579 11.25 1.25 11.5858 1.25 12C1.25 12.4142 1.58579 12.75 2 12.75H3C3.41421 12.75 3.75 12.4142 3.75 12zM6.16632 5.1057C6.45921 5.3986 6.45921 5.8735 6.16632 6.1664C5.87342 6.4593 5.39855 6.4593 5.10566 6.1664L4.39855 5.4593C4.10566 5.1664 4.10566 4.6915 4.39855 4.3986C4.69144 4.1057 5.16632 4.1057 5.45921 4.3986L6.16632 5.1057z" />
    <glyph glyph-name="sun-1"
      unicode="&#x73;&#x75;&#x6E;"
      horiz-adv-x="24" d="M12 22.75C12.4142 22.75 12.75 22.41421 12.75 22V21C12.75 20.58579 12.4142 20.25 12 20.25C11.5858 20.25 11.25 20.58579 11.25 21V22C11.25 22.41421 11.5858 22.75 12 22.75zM12 17.75C8.82436 17.75 6.25 15.17564 6.25 12C6.25 8.8244 8.82436 6.25 12 6.25C15.1756 6.25 17.75 8.8244 17.75 12C17.75 15.17564 15.1756 17.75 12 17.75zM5.45928 19.60138C5.16638 19.89427 4.69151 19.89427 4.39862 19.60138C4.10572 19.30848 4.10572 18.83361 4.39862 18.54071L5.10572 17.83361C5.39862 17.54071 5.87349 17.54071 6.16638 17.83361C6.45928 18.1265 6.45928 18.60138 6.16638 18.89427L5.45928 19.60138zM22.75 12C22.75 11.5858 22.4142 11.25 22 11.25H21C20.5858 11.25 20.25 11.5858 20.25 12C20.25 12.4142 20.5858 12.75 21 12.75H22C22.4142 12.75 22.75 12.4142 22.75 12zM19.6014 18.54072C19.8943 18.83362 19.8943 19.30849 19.6014 19.60138C19.3085 19.89428 18.8336 19.89428 18.5407 19.60138L17.8336 18.89428C17.5407 18.60138 17.5407 18.12651 17.8336 17.83362C18.1265 17.54072 18.6014 17.54072 18.8943 17.83362L19.6014 18.54072zM12 3.75C12.4142 3.75 12.75 3.4142 12.75 3V2C12.75 1.5858 12.4142 1.25 12 1.25C11.5858 1.25 11.25 1.5858 11.25 2V3C11.25 3.4142 11.5858 3.75 12 3.75zM18.8943 6.1664C18.6014 6.4593 18.1266 6.4593 17.8337 6.1664C17.5408 5.8735 17.5408 5.3986 17.8337 5.1057L18.5408 4.3986C18.8337 4.1057 19.3085 4.1057 19.6014 4.3986C19.8943 4.6915 19.8943 5.1664 19.6014 5.4593L18.8943 6.1664zM3.75 12C3.75 11.5858 3.41421 11.25 3 11.25H2C1.58579 11.25 1.25 11.5858 1.25 12C1.25 12.4142 1.58579 12.75 2 12.75H3C3.41421 12.75 3.75 12.4142 3.75 12zM6.16632 5.1057C6.45921 5.3986 6.45921 5.8735 6.16632 6.1664C5.87342 6.4593 5.39855 6.4593 5.10566 6.1664L4.39855 5.4593C4.10566 5.1664 4.10566 4.6915 4.39855 4.3986C4.69144 4.1057 5.16632 4.1057 5.45921 4.3986L6.16632 5.1057z" />
    </font>
</defs>
</svg>
