<svg width="24" height="24" viewBox="0 0 24 24" fill="none" xmlns="http://www.w3.org/2000/svg">
<path fill-rule="evenodd" clip-rule="evenodd" d="M16.4564 2.88264C13.5006 2.4579 10.4993 2.4579 7.54347 2.88264C6.07798 3.09323 4.94888 4.28262 4.81475 5.75708L4.68779 7.15281C4.39444 10.3776 4.39444 13.6223 4.68779 16.8471L4.81475 18.2428C4.94888 19.7173 6.07798 20.9067 7.54347 21.1173C10.4993 21.542 13.5006 21.542 16.4564 21.1173C17.9219 20.9067 19.051 19.7173 19.1851 18.2428L19.3121 16.8471C19.6055 13.6223 19.6055 10.3776 19.3121 7.15281L19.1851 5.75708C19.051 4.28262 17.9219 3.09323 16.4564 2.88264ZM9.99994 8.99997C9.99994 7.8954 10.8954 6.99997 11.9999 6.99997C13.1045 6.99997 13.9999 7.8954 13.9999 8.99997C13.9999 10.1045 13.1045 11 11.9999 11C10.8954 11 9.99994 10.1045 9.99994 8.99997ZM7.99994 15.5C7.99994 13.8431 9.34308 12.5 10.9999 12.5H12.9999C14.6568 12.5 15.9999 13.8431 15.9999 15.5C15.9999 16.0523 15.5522 16.5 14.9999 16.5H8.99994C8.44765 16.5 7.99994 16.0523 7.99994 15.5Z" fill="black"/>
</svg>
