<svg width="24" height="24" viewBox="0 0 24 24" fill="none" xmlns="http://www.w3.org/2000/svg">
<path d="M6.91804 1.59946C6.31259 1.53179 5.68743 1.53179 5.08199 1.59946C4.57616 1.65599 4.16572 2.05401 4.10569 2.56731C4.03321 3.18697 4.03321 3.81296 4.10569 4.43262C4.16572 4.94593 4.57616 5.34394 5.08199 5.40048C5.68743 5.46814 6.31259 5.46814 6.91804 5.40048C7.42387 5.34394 7.8343 4.94593 7.89434 4.43262C7.96681 3.81296 7.96681 3.18697 7.89434 2.56731C7.8343 2.05401 7.42387 1.65599 6.91804 1.59946Z" fill="black"/>
<path d="M12.918 1.59946C12.3126 1.53179 11.6874 1.53179 11.082 1.59946C10.5762 1.65599 10.1657 2.05401 10.1057 2.56731C10.0332 3.18697 10.0332 3.81296 10.1057 4.43262C10.1657 4.94593 10.5762 5.34394 11.082 5.40048C11.6874 5.46814 12.3126 5.46814 12.918 5.40048C13.4239 5.34394 13.8343 4.94593 13.8943 4.43262C13.9668 3.81296 13.9668 3.18697 13.8943 2.56731C13.8343 2.05401 13.4239 1.65599 12.918 1.59946Z" fill="black"/>
<path d="M18.918 1.59946C18.3126 1.53179 17.6874 1.53179 17.082 1.59946C16.5762 1.65599 16.1657 2.05401 16.1057 2.56731C16.0332 3.18697 16.0332 3.81296 16.1057 4.43262C16.1657 4.94593 16.5762 5.34394 17.082 5.40048C17.6874 5.46814 18.3126 5.46814 18.918 5.40048C19.4239 5.34394 19.8343 4.94593 19.8943 4.43262C19.9668 3.81296 19.9668 3.18697 19.8943 2.56731C19.8343 2.05401 19.4239 1.65599 18.918 1.59946Z" fill="black"/>
<path d="M6.91804 7.09946C6.31259 7.03179 5.68743 7.03179 5.08199 7.09946C4.57616 7.15599 4.16572 7.55401 4.10569 8.06731C4.03321 8.68697 4.03321 9.31296 4.10569 9.93262C4.16572 10.4459 4.57616 10.8439 5.08199 10.9005C5.68743 10.9681 6.31259 10.9681 6.91804 10.9005C7.42387 10.8439 7.8343 10.4459 7.89434 9.93262C7.96681 9.31296 7.96681 8.68697 7.89434 8.06731C7.8343 7.55401 7.42387 7.15599 6.91804 7.09946Z" fill="black"/>
<path d="M12.918 7.09946C12.3126 7.03179 11.6874 7.03179 11.082 7.09946C10.5762 7.15599 10.1657 7.55401 10.1057 8.06731C10.0332 8.68697 10.0332 9.31296 10.1057 9.93262C10.1657 10.4459 10.5762 10.8439 11.082 10.9005C11.6874 10.9681 12.3126 10.9681 12.918 10.9005C13.4239 10.8439 13.8343 10.4459 13.8943 9.93262C13.9668 9.31296 13.9668 8.68697 13.8943 8.06731C13.8343 7.55401 13.4239 7.15599 12.918 7.09946Z" fill="black"/>
<path d="M18.918 7.09946C18.3126 7.03179 17.6874 7.03179 17.082 7.09946C16.5762 7.15599 16.1657 7.55401 16.1057 8.06731C16.0332 8.68697 16.0332 9.31296 16.1057 9.93262C16.1657 10.4459 16.5762 10.8439 17.082 10.9005C17.6874 10.9681 18.3126 10.9681 18.918 10.9005C19.4239 10.8439 19.8343 10.4459 19.8943 9.93262C19.9668 9.31296 19.9668 8.68697 19.8943 8.06731C19.8343 7.55401 19.4239 7.15599 18.918 7.09946Z" fill="black"/>
<path d="M6.91804 12.5995C6.31259 12.5318 5.68743 12.5318 5.08199 12.5995C4.57616 12.656 4.16572 13.054 4.10569 13.5673C4.03321 14.187 4.03321 14.813 4.10569 15.4326C4.16572 15.9459 4.57616 16.3439 5.08199 16.4005C5.68743 16.4681 6.31259 16.4681 6.91804 16.4005C7.42387 16.3439 7.8343 15.9459 7.89434 15.4326C7.96681 14.813 7.96681 14.187 7.89434 13.5673C7.8343 13.054 7.42387 12.656 6.91804 12.5995Z" fill="black"/>
<path d="M12.918 12.5995C12.3126 12.5318 11.6874 12.5318 11.082 12.5995C10.5762 12.656 10.1657 13.054 10.1057 13.5673C10.0332 14.187 10.0332 14.813 10.1057 15.4326C10.1657 15.9459 10.5762 16.3439 11.082 16.4005C11.6874 16.4681 12.3126 16.4681 12.918 16.4005C13.4239 16.3439 13.8343 15.9459 13.8943 15.4326C13.9668 14.813 13.9668 14.187 13.8943 13.5673C13.8343 13.054 13.4239 12.656 12.918 12.5995Z" fill="black"/>
<path d="M12.918 18.0995C12.3126 18.0318 11.6874 18.0318 11.082 18.0995C10.5762 18.156 10.1657 18.554 10.1057 19.0673C10.0332 19.687 10.0332 20.313 10.1057 20.9326C10.1657 21.4459 10.5762 21.8439 11.082 21.9005C11.6874 21.9681 12.3126 21.9681 12.918 21.9005C13.4239 21.8439 13.8343 21.4459 13.8943 20.9326C13.9668 20.313 13.9668 19.687 13.8943 19.0673C13.8343 18.554 13.4239 18.156 12.918 18.0995Z" fill="black"/>
<path d="M18.918 12.5995C18.3126 12.5318 17.6874 12.5318 17.082 12.5995C16.5762 12.656 16.1657 13.054 16.1057 13.5673C16.0332 14.187 16.0332 14.813 16.1057 15.4326C16.1657 15.9459 16.5762 16.3439 17.082 16.4005C17.6874 16.4681 18.3126 16.4681 18.918 16.4005C19.4239 16.3439 19.8343 15.9459 19.8943 15.4326C19.9668 14.813 19.9668 14.187 19.8943 13.5673C19.8343 13.054 19.4239 12.656 18.918 12.5995Z" fill="black"/>
</svg>
