<svg width="24" height="24" viewBox="0 0 24 24" fill="none" xmlns="http://www.w3.org/2000/svg">
<path d="M19.807 5.68665C20.1051 5.93228 20.3533 6.23689 20.5337 6.58369C20.5908 6.69342 20.548 6.82628 20.4428 6.89139L14.1769 10.7703C12.833 11.6022 11.1385 11.6197 9.77778 10.8156L3.46995 7.08828C3.36804 7.02806 3.32126 6.9041 3.36719 6.795C3.5498 6.36122 3.83438 5.98296 4.1904 5.68892L4.19006 5.68593L4.20233 5.67912C4.46577 5.46389 4.76781 5.29453 5.09621 5.18252L9.20609 2.89926C10.9427 1.93446 13.0544 1.93446 14.791 2.89925L18.896 5.17984C19.2302 5.29273 19.5372 5.46493 19.8043 5.68442L19.807 5.68665Z" fill="black"/>
<path d="M2.98891 8.95409C3.00709 8.77384 3.20609 8.67467 3.36206 8.76683L9.01468 12.107C10.8557 13.1949 13.1482 13.1712 14.9664 12.0457L20.611 8.55146C20.7662 8.45536 20.9686 8.55271 20.9882 8.73423C21.2683 11.3217 21.2145 13.9362 20.827 16.5133C20.6285 17.8334 19.5511 18.8454 18.2211 18.961L16.7109 19.0923C13.5763 19.3648 10.4239 19.3648 7.28924 19.0923L5.77901 18.961C4.44907 18.8454 3.37166 17.8334 3.17314 16.5133C2.79659 14.0092 2.73518 11.4697 2.98891 8.95409Z" fill="black"/>
</svg>
