<svg width="24" height="24" viewBox="0 0 24 24" fill="none" xmlns="http://www.w3.org/2000/svg">
<path d="M6.54543 8.16277C6.33021 8.10599 6.15133 7.95655 6.05716 7.75486C5.963 7.55318 5.96329 7.32009 6.05795 7.11863L7.7187 3.58424C7.84246 3.32086 8.10742 3.15284 8.39843 3.1532C8.68944 3.15356 8.95398 3.32223 9.07709 3.58592L9.80971 5.15516C9.83591 5.14486 9.86295 5.13594 9.89078 5.12848C14.2381 3.96361 18.7067 6.54352 19.8715 10.8909C21.0364 15.2382 18.4565 19.7068 14.1091 20.8716C9.7618 22.0365 5.29326 19.4566 4.12839 15.1092C3.75797 13.7268 3.7663 12.3299 4.09074 11.0312C4.19112 10.6293 4.59828 10.3849 5.00015 10.4853C5.40201 10.5857 5.6464 10.9929 5.54602 11.3947C5.28172 12.4527 5.27444 13.5908 5.57728 14.721C6.52774 18.2682 10.1738 20.3732 13.7209 19.4227C17.2681 18.4723 19.3731 14.8262 18.4226 11.2791C17.4877 7.78995 13.9447 5.69613 10.4531 6.53319L11.1923 8.11649C11.3154 8.38018 11.2748 8.69128 11.0882 8.91462C10.9017 9.13795 10.6027 9.23319 10.3214 9.15895L6.54543 8.16277Z" fill="black"/>
</svg>
