<svg width="24" height="24" viewBox="0 0 24 24" fill="none" xmlns="http://www.w3.org/2000/svg">
<path d="M20.4461 16.0608C20.5423 16.2507 20.5077 16.4806 20.36 16.6338C20.2122 16.787 19.9837 16.8299 19.7905 16.7407L17.2912 15.5872C15.1906 14.6177 12.8982 14.1741 10.6098 14.2785C10.5827 15.0133 10.5423 15.7478 10.4888 16.4816L10.4204 17.4205C10.3789 17.9902 9.7437 18.3086 9.26241 18.0011C7.17342 16.6663 5.35736 14.9463 3.91104 12.9329L3.45085 12.2923C3.32563 12.118 3.32563 11.8832 3.45085 11.7089L3.91103 11.0683C5.35736 9.05486 7.17342 7.33491 9.26241 6.00009C9.7437 5.69255 10.3789 6.01099 10.4204 6.58064L10.4888 7.5196C10.5348 8.14945 10.571 8.77984 10.5975 9.41053H11.2406C14.8216 9.41053 18.0983 11.4242 19.716 14.6189L20.4461 16.0608Z" fill="black"/>
</svg>
